<?xml version="1.0" encoding="utf-8"?>
<!-- Generator: Adobe Illustrator 22.0.1, SVG Export Plug-In . SVG Version: 6.00 Build 0)  -->
<svg version="1.1" id="Layer_1" xmlns="http://www.w3.org/2000/svg" xmlns:xlink="http://www.w3.org/1999/xlink" x="0px" y="0px"
	 viewBox="0 0 314.2 139.3" style="enable-background:new 0 0 314.2 139.3;" xml:space="preserve">
<style type="text/css">
	.st0{fill:#FFFFFF;stroke:#000000;stroke-miterlimit:10;}
</style>
<g>
	<g>
		<path class="st0" d="M16.7,17.9h25.9L35.5,96h0.3l28-78.1h24L83.5,96h0.3l25.8-78.1h29.1L92.1,127.7H63.5l5.4-78h-0.3l-27.2,78
			H12.7L16.7,17.9z"/>
	</g>
	<g>
		<path class="st0" d="M128.5,129.8c-34,0-33.8-22.1-26.4-57s16.8-57,50.7-57c36.6,0,32.9,26.6,26.4,57
			C172.8,103.2,165.1,129.8,128.5,129.8z M132,112.6c10.5,0,14-9.7,20.5-39.8S159.4,33,149,33c-10.1,0-13.7,9.7-20.1,39.8
			C122.3,102.9,121.9,112.6,132,112.6z"/>
	</g>
	<g>
		<path class="st0" d="M231,17.9h25.8l-9.2,43.4h0.3l33.4-43.4h27.8l-38.9,47.4l19.1,62.4h-29.1l-11.1-41.4L240,96.9l-6.6,30.8
			h-25.8l8.6-40.4l-4.3-14.5l8.8-6.6L231,17.9z"/>
	</g>
	<g>
		<path class="st0" d="M173.6,17.9H217c22,0,26.6,13.5,23.4,28.6c-3.4,16-11.5,23.8-24.1,26.8v0.3c16,2.3,14.6,12.6,11.8,27.4
			c-4.2,21.7-3.6,23.5-0.3,25.1l-0.5,1.6h-27.8c-1.2-3.7-0.6-9.7,2-22.2c4-19.1,2.3-23.1-5.8-23.1h-9.8l-9.7,45.4h-25.8L173.6,17.9z
			 M189.6,64.2h8c10.5,0,14.9-7.8,16.3-14.3c1.7-8.3-0.2-13.8-10.5-13.8h-7.8L189.6,64.2z"/>
	</g>
</g>
</svg>
