<?xml version="1.0" encoding="utf-8"?>
<!-- Generator: Adobe Illustrator 22.0.1, SVG Export Plug-In . SVG Version: 6.00 Build 0)  -->
<svg version="1.1" id="Layer_1" xmlns="http://www.w3.org/2000/svg" xmlns:xlink="http://www.w3.org/1999/xlink" x="0px" y="0px"
	 viewBox="0 0 314.2 139.3" style="enable-background:new 0 0 314.2 139.3;" xml:space="preserve">
<style type="text/css">
	.st0{fill:#FFFFFF;stroke:#000000;stroke-miterlimit:10;}
</style>
<g>
	<g>
		<path class="st0" d="M16.7,18.4h25.9l-7.1,78.1h0.3l28-78.1h24l-4.3,78.1h0.3l25.8-78.1h29.1L92.1,128.2H63.5l5.4-78h-0.3
			l-27.2,78H12.7L16.7,18.4z"/>
	</g>
	<g>
		<path class="st0" d="M128.5,130.3c-34,0-33.8-22.1-26.4-57s16.8-57,50.7-57c36.6,0,32.9,26.6,26.4,57
			C172.8,103.7,165.1,130.3,128.5,130.3z M132,113.1c10.5,0,14-9.7,20.5-39.8s6.9-39.8-3.5-39.8c-10.1,0-13.7,9.7-20.1,39.8
			C122.3,103.4,121.9,113.1,132,113.1z"/>
	</g>
	<g>
		<path class="st0" d="M231,18.4h25.8l-9.2,43.4h0.3l33.4-43.4h27.8l-38.9,47.4l19.1,62.4h-29.1l-11.1-41.4L240,97.4l-6.6,30.8
			h-25.8l8.6-40.4l-4.3-14.5l8.8-6.6L231,18.4z"/>
	</g>
	<g>
		<path class="st0" d="M173.6,18.4H217c22,0,26.6,13.5,23.4,28.6c-3.4,16-11.5,23.8-24.1,26.8v0.3c16,2.3,14.6,12.6,11.8,27.4
			c-4.2,21.7-3.6,23.5-0.3,25.1l-0.5,1.6h-27.8c-1.2-3.7-0.6-9.7,2-22.2c4-19.1,2.3-23.1-5.8-23.1h-9.8l-9.7,45.4h-25.8L173.6,18.4z
			 M189.6,64.7h8c10.5,0,14.9-7.8,16.3-14.3c1.7-8.3-0.2-13.8-10.5-13.8h-7.8L189.6,64.7z"/>
	</g>
</g>
</svg>
