<?xml version="1.0" encoding="utf-8"?>
<!-- Generator: Adobe Illustrator 24.3.0, SVG Export Plug-In . SVG Version: 6.00 Build 0)  -->
<svg version="1.1" id="Layer_2" xmlns="http://www.w3.org/2000/svg" xmlns:xlink="http://www.w3.org/1999/xlink" x="0px" y="0px"
	 viewBox="0 0 136.1 47.5" style="enable-background:new 0 0 136.1 47.5;" xml:space="preserve">
<style type="text/css">
	.st0{fill:#EB2227;}
	.st1{fill:none;stroke:#FFFFFF;stroke-width:0.6973;stroke-miterlimit:10;}
</style>
<g>
	<g>
		<path class="st0" d="M36.8,42.9c-4.5,0-8.2-4.4-8.2-9.8c0-5.2,7.4-25.8,7.8-26.7l0.5-1.3l0.5,1.3C37.6,7.3,45,27.9,45,33.1
			C45,38.5,41.3,42.9,36.8,42.9z"/>
		<path d="M36.8,6.6c0,0,7.7,21.3,7.7,26.5c0,5.2-3.5,9.3-7.7,9.3s-7.7-4.2-7.7-9.3C29.1,27.9,36.8,6.6,36.8,6.6 M36.8,3.7l-0.9,2.6
			c-0.3,0.9-7.8,21.5-7.8,26.8c0,5.7,3.9,10.3,8.7,10.3s8.7-4.6,8.7-10.3c0-5.3-7.5-25.9-7.8-26.8L36.8,3.7L36.8,3.7z"/>
	</g>
	<path class="st1" d="M35.1,17.9c0,0-4.5,13.5-3.6,16.2"/>
</g>
</svg>
