<?xml version="1.0" encoding="utf-8"?>
<!-- Generator: Adobe Illustrator 27.0.0, SVG Export Plug-In . SVG Version: 6.00 Build 0)  -->
<svg version="1.1" id="Layer_1" xmlns="http://www.w3.org/2000/svg" xmlns:xlink="http://www.w3.org/1999/xlink" x="0px" y="0px"
	 viewBox="0 0 231.8 31.7" style="enable-background:new 0 0 231.8 31.7;" xml:space="preserve">
<style type="text/css">
	.st0{fill:#FFFFFF;}
</style>
<g>
	<path class="st0" d="M95.1,31.3c-0.3,0-0.5,0-0.7-0.1c-0.2,0-0.4-0.1-0.6-0.3c-0.5,0.3-1,0.5-1.5,0.6c-0.5,0.2-1.1,0.2-1.6,0.2
		s-0.9-0.1-1.4-0.2c-0.5-0.2-0.9-0.4-1.2-0.7c-0.4-0.3-0.6-0.7-0.9-1.2c-0.2-0.5-0.3-1-0.3-1.6c0-0.1,0-0.2,0.1-0.4
		c0-0.2,0.1-0.5,0.1-0.7c0.1-0.3,0.1-0.5,0.2-0.8c0.1-0.2,0.1-0.4,0.2-0.6c0-0.1,0-0.3,0.1-0.5l0.9-2.4c0.5-1.3,1.1-2.8,1.8-4.4
		c0.7-1.6,1.4-3.3,2.3-5s1.8-3.3,2.9-4.9s2.2-3,3.5-4.2s2.7-2.2,4.2-3c1.5-0.7,3.2-1.1,4.9-1.1h0.4c0.2,0,0.5,0,0.9,0.1
		s0.9,0.2,1.4,0.3s0.9,0.2,1.2,0.4c0.4,0.2,0.6,0.3,0.6,0.4c0.4,0.2,0.9,0.5,1.3,1s0.8,0.9,1,1.5c0.3,0.5,0.5,1.1,0.7,1.7
		s0.2,1.1,0.2,1.6c0,1-0.2,1.9-0.7,2.8s-1,1.7-1.7,2.5s-1.5,1.5-2.4,2.2s-1.7,1.3-2.5,1.8c0.6,0.3,1.1,0.7,1.5,1.1s0.6,1,0.6,1.7
		c0,0.6-0.1,1.2-0.3,1.8s-0.4,1.1-0.6,1.5c-0.5,1.3-1.3,2.5-2.2,3.6s-2,2-3.2,2.8s-2.4,1.4-3.8,1.9c-1.3,0.5-2.7,0.7-4,0.7
		c-0.2,0-0.5,0-0.7,0C95.7,31.3,95.4,31.3,95.1,31.3z M95.1,29.5c0.3,0,0.5,0,0.8,0c0.2,0,0.5,0,0.7,0c1.1,0,2.1-0.2,3.2-0.5
		c1-0.3,2-0.8,3-1.4c0.9-0.6,1.8-1.3,2.6-2c0.8-0.8,1.5-1.6,2-2.5c0.3-0.5,0.7-1.1,1-1.7c0.3-0.7,0.5-1.3,0.5-1.9
		c0-0.4-0.1-0.7-0.3-0.9s-0.4-0.4-0.7-0.6c-0.3-0.2-0.5-0.3-0.8-0.4s-0.6-0.3-0.8-0.5c0.8-0.8,1.6-1.6,2.6-2.4
		c0.9-0.8,1.8-1.6,2.6-2.5c0.8-0.8,1.4-1.7,2-2.5c0.5-0.9,0.8-1.7,0.8-2.6c0-0.8-0.2-1.6-0.6-2.3s-0.9-1.3-1.6-1.9
		c-0.1,0-0.2-0.1-0.3-0.1s-0.2-0.1-0.2-0.1c-0.6-0.3-1.2-0.5-1.6-0.6c-0.5-0.2-1-0.2-1.6-0.2c-1.3,0-2.5,0.2-3.6,0.7
		s-2.2,1.1-3.1,1.9c-1,0.8-1.9,1.7-2.7,2.7c-0.8,1-1.6,2.1-2.3,3.2c-0.7,1.1-1.3,2.3-1.9,3.4S93.7,16,93.2,17
		c-0.3,0.7-0.7,1.4-1,2.2s-0.7,1.6-1,2.4s-0.6,1.5-0.9,2.3s-0.5,1.3-0.7,1.8c-0.1,0.4-0.2,0.8-0.4,1.2C89,27.3,89,27.7,89,28.1
		c0,0.6,0.2,1.1,0.6,1.5s0.9,0.6,1.5,0.6c0.3,0,0.5-0.1,0.8-0.2s0.5-0.2,0.8-0.3c0.2-0.1,0.5-0.2,0.7-0.3s0.5-0.2,0.7-0.2
		C94.5,29.2,94.8,29.3,95.1,29.5L95.1,29.5L95.1,29.5z M94.7,26.6c0.3-0.9,0.7-1.8,1.1-2.6s0.8-1.7,1.2-2.5c0.9-0.2,1.7-0.4,2.3-0.6
		c0.6-0.2,1.2-0.3,1.8-0.3c0.8,0,1.4,0.2,1.7,0.6c0.3,0.4,0.5,0.9,0.5,1.4c0,0.7-0.2,1.4-0.6,2s-0.8,1.1-1.4,1.6s-1.2,0.8-1.9,1.1
		s-1.4,0.5-2.1,0.5c-0.1,0-0.3,0-0.4,0s-0.3-0.1-0.5-0.1c-0.2-0.1-0.4-0.2-0.7-0.4S95.1,26.9,94.7,26.6z M98.4,22.7
		c-0.3,0.5-0.5,1.1-0.8,1.7s-0.5,1.1-0.8,1.7c0.5,0,1.1-0.1,1.6-0.3s1-0.4,1.4-0.7s0.8-0.7,1.1-1.1s0.5-0.9,0.6-1.5
		c0-0.1-0.1-0.1-0.3-0.2c-0.2,0-0.3,0-0.4,0c-0.4,0-0.8,0.1-1.3,0.2C99.2,22.6,98.7,22.7,98.4,22.7z M100.5,14
		c0.2-0.5,0.4-1,0.7-1.6c0.2-0.5,0.5-1.1,0.8-1.6s0.6-1,0.9-1.5s0.7-0.9,1.1-1.3l0,0c0.7-0.6,1.5-0.9,2.5-0.9l1.1-0.1
		c0.6,0.3,1,0.6,1.4,1c0.3,0.4,0.5,0.8,0.5,1.2c0,0.8-0.3,1.5-0.9,2.1s-1.3,1.2-2.2,1.6c-0.9,0.4-1.8,0.7-2.9,0.9
		C102.4,14,101.4,14.1,100.5,14z M106.9,8.7c-0.3,0.1-0.6,0.1-0.9,0.2c-0.3,0.1-0.6,0.2-0.9,0.4c-0.4,0.4-0.8,0.8-1.2,1.3
		c-0.4,0.5-0.7,1-0.9,1.5c0.3-0.1,0.7-0.3,1.2-0.4s1-0.4,1.4-0.6c0.5-0.2,0.9-0.5,1.2-0.8s0.6-0.7,0.6-1.1
		C107.4,9,107.2,8.8,106.9,8.7z M111.9,1.1L111.9,1.1C111.9,1,111.9,1.1,111.9,1.1z"/>
</g>
<g>
	<path class="st0" d="M15.4,26c-1.5,1.4-3.4,2.1-5.7,2.1c-2.9,0-5.1-0.9-6.8-2.8c-1.6-1.9-2.5-4.4-2.5-7.6c0-3.5,0.9-6.2,2.8-8.1
		C4.8,8,6.9,7.1,9.4,7.1c3.4,0,5.8,1.1,7.4,3.3c0.9,1.2,1.3,2.5,1.4,3.7H14c-0.3-1-0.6-1.7-1-2.2c-0.8-0.9-1.9-1.3-3.4-1.3
		S6.9,11.2,6,12.4s-1.3,3-1.3,5.2s0.5,3.9,1.4,5s2.1,1.7,3.5,1.7c1.5,0,2.6-0.5,3.4-1.4c0.4-0.5,0.8-1.3,1.1-2.3h4.1
		C17.9,22.9,16.9,24.7,15.4,26z"/>
	<path class="st0" d="M33.1,23.4h-7.3l-1.4,4.1H20l7.1-20h4.7l7.1,20h-4.5L33.1,23.4z M32,19.9L29.5,12l-2.6,7.9H32z"/>
	<path class="st0" d="M50,19.7h-4.3v7.9h-4.1v-20h9.8c1.4,0,2.5,0.2,3.2,0.5c0.8,0.3,1.4,0.8,1.9,1.4c0.4,0.5,0.8,1.1,1,1.7
		c0.3,0.6,0.4,1.3,0.4,2.1c0,1-0.2,1.9-0.7,2.8s-1.3,1.6-2.4,2c0.9,0.4,1.6,0.9,2,1.6s0.6,1.7,0.6,3.1v1.3c0,0.9,0,1.5,0.1,1.9
		c0.1,0.5,0.4,0.9,0.8,1.1v0.5h-4.6c-0.1-0.4-0.2-0.8-0.3-1.1c-0.1-0.6-0.2-1.1-0.2-1.7v-1.9c0-1.3-0.3-2.1-0.7-2.6
		C52.1,19.9,51.2,19.7,50,19.7z M52.6,16c0.8-0.4,1.2-1.1,1.2-2.3s-0.4-2-1.2-2.4c-0.5-0.2-1.1-0.4-2-0.4h-4.9v5.4h4.7
		C51.4,16.3,52.1,16.2,52.6,16z"/>
	<path class="st0" d="M73.3,23.4h-7.4l-1.4,4.1h-4.4l7.1-20h4.7l7.1,20h-4.5L73.3,23.4z M72.2,19.9L69.7,12l-2.6,7.9H72.2z"/>
</g>
<path class="st0" d="M129.8,19.8V7.5h4.3v12.3c0,2.1-0.3,3.8-1,5c-1.2,2.2-3.6,3.3-7.1,3.3c-3.5,0-5.8-1.1-7.1-3.3
	c-0.7-1.2-1-2.8-1-5V7.5h4.3v12.3c0,1.4,0.2,2.4,0.5,3c0.5,1.1,1.6,1.7,3.3,1.7s2.8-0.6,3.3-1.7C129.6,22.2,129.8,21.2,129.8,19.8z"
	/>
<path class="st0" d="M152.2,27.5h-15.6V24l10.3-12.9h-10.1V7.6h15.3V11l-10.5,13.1h10.5v3.4H152.2z"/>
<path class="st0" d="M170.1,27.5h-15.6V24l10.3-12.9h-10.1V7.6H170V11l-10.5,13.1H170v3.4H170.1z"/>
<path class="st0" d="M186.9,18.8h-9.7v5.1h11.1v3.6h-15.2v-20h14.6V11h-10.6v4.3h9.7v3.5H186.9z"/>
<path class="st0" d="M190.9,7.5h4.2v16.4h9.9v3.6h-14.1L190.9,7.5L190.9,7.5z"/>
<path class="st0" d="M207.4,7.5h4.2v16.4h9.9v3.6h-14.1L207.4,7.5L207.4,7.5z"/>
</svg>
