<?xml version="1.0" encoding="utf-8"?>
<!-- Generator: Adobe Illustrator 23.0.1, SVG Export Plug-In . SVG Version: 6.00 Build 0)  -->
<svg version="1.1" id="Layer_1" xmlns="http://www.w3.org/2000/svg" xmlns:xlink="http://www.w3.org/1999/xlink" x="0px" y="0px"
	 viewBox="0 0 2400 311.3" style="enable-background:new 0 0 2400 311.3;" xml:space="preserve">
<g>
	<path d="M107.9,31.3c73.8,0,113.1,47,117.7,107l-62.4,2.3c-3.9-26.8-18.3-51.6-55.7-51.6c-35.5,0-56.2,26.3-56.2,67.2
		s20.7,67.2,56.2,67.2c37.4,0,52-24.8,55.7-51.6l62.4,2.7c-4.6,60-43.9,106.6-117.7,106.6c-70.4-0.1-123.5-51-123.5-125
		C-15.6,82.1,37.5,31.3,107.9,31.3z"/>
	<path d="M363.7,281.2c-70,0-125-50.9-125-125c0.1-74.1,55-124.9,125-124.9s125,50.9,125,125S433.7,281.2,363.7,281.2z M363.7,88.7
		c-35.5,0-58.1,26.8-58.1,67.6s22.6,67.6,58.1,67.6s58.1-26.8,58.1-67.6S399.2,88.7,363.7,88.7z"/>
	<path d="M606.2,276.6l-43.1-169.3h-1.5v169.3H502V35.9h100.5L638,187.2h1.2l34-151.4h98.3v240.8h-65V107.4H705l-43.2,169.3
		L606.2,276.6L606.2,276.6z"/>
	<path d="M863.4,35.9v240.8h-65V35.9H863.4z"/>
	<path d="M1046.5,169.3V35.9h59.6v240.8h-52l-104-142.5v142.5h-59.6V35.9h61.9L1046.5,169.3z"/>
	<path d="M1122.5,156.3c0-74.2,54.6-125,124.2-125c70.7,0,112,38.6,117.3,98.6l-63.1,2.3c-3.5-26.3-21.8-43.1-52.7-43.1
		c-37.8,0-58.8,26.3-58.8,67.2c0,42,22.2,70,63.9,70c21.1,0,41.6-8.9,51.2-27.9h-53.1v-46.6H1366v125h-56.6V250
		c-13.4,22.2-39,31.3-70,31.3C1173,281.2,1122.5,230.9,1122.5,156.3z"/>
</g>
<path d="M1495.9,189.6c2.3,30.2,25.6,40.5,52.3,40.5c22.6,0,37-8,37-21.4c0-14.1-14.1-16.5-32.5-19.9l-43.9-7.6
	c-39.4-7.2-66.8-29.4-66.8-71.5c0-48.9,38.2-78.3,98.2-78.3c66.4,0,102.4,32.5,103.6,86l-59.6,1.1c-1.9-24.8-19.8-36.3-44.7-36.3
	c-21.4,0-33.7,8.4-33.7,21.8c0,11.1,9.2,15.3,24.1,18l45.5,8c50.5,8.7,73.3,35.1,73.3,74.5c0,51.2-44.4,76.8-100.5,76.8
	c-65.3,0-111.9-31.7-111.9-89.8L1495.9,189.6z"/>
<path d="M1783.2,281.2c-69.9,0-124.9-50.8-124.9-124.9s55-124.9,124.9-124.9s124.9,50.8,124.9,124.9S1853.1,281.2,1783.2,281.2z
	 M1783.2,88.7c-35.5,0-58.1,26.8-58.1,67.6s22.6,67.6,58.1,67.6s58.1-26.8,58.1-67.6S1818.8,88.7,1783.2,88.7z"/>
<path d="M2043.2,281.2c-69.9,0-124.9-50.8-124.9-124.9s54.9-125,124.9-125s124.9,50.8,124.9,124.9S2113.1,281.2,2043.2,281.2z
	 M2043.2,88.7c-35.5,0-58.1,26.8-58.1,67.6s22.6,67.6,58.1,67.6s58.1-26.8,58.1-67.6S2078.7,88.7,2043.2,88.7z"/>
<path d="M2340.4,169.2V36h59.6v240.7h-52l-103.9-142.5v142.5h-59.6V36h61.9L2340.4,169.2z"/>
</svg>
