<?xml version="1.0" encoding="utf-8"?>
<!-- Generator: Adobe Illustrator 24.0.3, SVG Export Plug-In . SVG Version: 6.00 Build 0)  -->
<svg version="1.1" xmlns="http://www.w3.org/2000/svg" xmlns:xlink="http://www.w3.org/1999/xlink" x="0px" y="0px"
	 viewBox="0 0 1920 1080" style="enable-background:new 0 0 1920 1080;" xml:space="preserve">
<style type="text/css">
	.st0{fill:#FFFFFF;}
	.st1{fill:#E4CFED;}
	.st2{fill:#0093D7;}
	.st3{fill:#FF4E2D;}
	.st4{fill:#FA4E84;}
	.st5{fill:#00A154;}
	.st6{fill:#FFEE51;}
	.st7{fill:#543510;}
	.st8{fill:#5D0632;}
	.st9{fill:#C8E4F4;}
	.st10{fill:#FFB1B8;}
	.st11{fill:#FFC6AA;}
	.st12{fill:#AEECC9;}
	.st13{fill:#FCF1CD;}
	.st14{fill:#B69B79;}
</style>
<g id="Layer_1">
	<g>
		<rect x="1.5" y="1.5" width="1917" height="1077"/>
		<path class="st0" d="M1917,3v1074H3V3H1917 M1920,0H0v1080h1920V0L1920,0z"/>
	</g>
</g>
<g id="Layer_2">
	<g>
		<rect x="1668" y="291" class="st1" width="178" height="178"/>
	</g>
	<g>
		<rect x="104" y="291" class="st2" width="178" height="178"/>
	</g>
	<g>
		<rect x="315" y="291" class="st3" width="178" height="178"/>
	</g>
	<g>
		<rect x="526" y="291" class="st4" width="178" height="178"/>
	</g>
	<g>
		<rect x="737" y="291" class="st5" width="178" height="178"/>
	</g>
	<g>
		<rect x="948" y="291" class="st6" width="178" height="178"/>
	</g>
	<g>
		<rect x="1457.5" y="291" class="st7" width="178" height="178"/>
	</g>
	<g>
		<rect x="1247" y="291" class="st8" width="178" height="178"/>
	</g>
	<g>
		<rect x="104" y="761" class="st9" width="178" height="178"/>
	</g>
	<g>
		<rect x="526" y="761" class="st10" width="178" height="178"/>
	</g>
	<g>
		<rect x="315" y="761" class="st11" width="178" height="178"/>
	</g>
	<g>
		<rect x="737" y="761" class="st12" width="178" height="178"/>
	</g>
	<g>
		<rect x="948" y="761" class="st13" width="178" height="178"/>
	</g>
	<g>
		<rect x="1458" y="761" class="st14" width="178" height="178"/>
	</g>
	<g>
		<path class="st0" d="M430.4,214.8c0.2,5.3,3.8,8.3,8.7,8.3c4.4,0,7.2-2,7.2-5.3c0-2.7-1.6-4.2-5.5-5l-5.5-1.1
			c-3.9-0.8-6.5-2.8-6.5-6.9c0-4.5,3.6-7.7,9.2-7.7c6.5,0,10.4,3.6,10.4,9.7l-2.5,0.2c-0.1-4.9-3-7.8-7.9-7.8
			c-4.3,0-6.7,2.1-6.7,5.5c0,3,1.9,4,5.5,4.7l4.8,0.9c4.8,0.9,7.2,2.9,7.2,7.1c0,4.7-4.1,7.6-9.8,7.6c-6.4,0-11.2-3.6-11.2-10.2
			L430.4,214.8z"/>
		<path class="st0" d="M466.4,224.7l-9.1-24.4h-0.2v24.4h-2.6v-27h4.4l8.6,23.3h0.1l8.1-23.3h4.4v27h-2.7v-24.4h-0.2l-8.7,24.4
			H466.4z"/>
		<path class="st0" d="M487.2,224.7v-27H505v2.3h-15.2v10h12.1v2.3h-12.1v12.4H487.2z"/>
		<path class="st0" d="M519.2,197.7l11.4,27h-2.9l-3.6-8.7h-12.8l-3.5,8.7h-2.7l11.1-27H519.2z M512.3,213.7h10.9l-5.4-13.1h-0.2
			L512.3,213.7z"/>
		<path class="st0" d="M556.1,224.7l-9.1-24.4h-0.2v24.4h-2.6v-27h4.4l8.6,23.3h0.1l8.1-23.3h4.4v27h-2.7v-24.4h-0.2l-8.7,24.4
			H556.1z"/>
		<path class="st0" d="M588.7,197.7l11.4,27h-2.9l-3.6-8.7h-12.8l-3.5,8.7h-2.7l11.1-27H588.7z M581.8,213.7h10.9l-5.4-13.1H587
			L581.8,213.7z"/>
		<path class="st0" d="M607.5,197.7v27h-2.7v-27H607.5z"/>
		<path class="st0" d="M633.2,219.9v-22.2h2.6v27h-2.1l-16.8-23.2v23.2h-2.6v-27h3L633.2,219.9z"/>
		<path class="st0" d="M654.3,224.7h-2.7v-27h9.2c6.6,0,10.3,3.1,10.3,8.2s-3.7,8.2-10.3,8.2h-6.5V224.7z M660.8,211.9
			c5.1,0,7.7-2.1,7.7-5.9s-2.6-5.9-7.7-5.9h-6.5v11.9H660.8z"/>
		<path class="st0" d="M685.7,197.7l11.4,27h-2.9l-3.6-8.7h-12.8l-3.5,8.7h-2.7l11.1-27H685.7z M678.8,213.7h10.9l-5.4-13.1h-0.2
			L678.8,213.7z"/>
		<path class="st0" d="M704.5,197.7v24.7H720v2.3h-18.2v-27H704.5z"/>
		<path class="st0" d="M743.8,224.7h-18.7v-27h18.3v2.3h-15.7v9.6h12.5v2.3h-12.5v10.6h16V224.7z"/>
		<path class="st0" d="M757.6,224.7V200h-10v-2.3h22.8v2.3h-10.1v24.7H757.6z"/>
		<path class="st0" d="M783.6,224.7V200h-10v-2.3h22.8v2.3h-10.1v24.7H783.6z"/>
		<path class="st0" d="M819.9,224.7h-18.7v-27h18.3v2.3h-15.7v9.6h12.5v2.3h-12.5v10.6h16V224.7z"/>
	</g>
	<g>
		<path class="st0" d="M168.9,509.3v1.7h-14.1v-0.9l5.6-4.9c3.1-2.7,5.7-5,5.7-8.1c0-2.6-1.5-4.4-4.4-4.4c-2.9,0-4.7,1.8-4.7,5
			c0,0.6,0.1,1.2,0.2,1.8l-2-0.1c-0.1-0.6-0.2-1.2-0.2-1.8c0-4,2.6-6.5,6.6-6.5c4.5,0,6.4,2.7,6.4,5.9c0,3.6-3.4,6.6-6.1,8.9l-4,3.4
			H168.9z"/>
		<path class="st0" d="M184.4,500c-0.6,2.6-2.7,4.6-6.2,4.6c-4.2,0-6.9-2.8-6.9-6.7c0-4,2.6-6.8,7-6.8c5.1,0,7.8,3.8,7.8,9.7
			c0,6.2-2.5,10.6-7.9,10.6c-3.8,0-6.4-2.2-6.7-5.8l1.9-0.1c0.4,2.6,1.8,4.4,4.8,4.4C182.7,509.9,184.5,505.7,184.4,500z
			 M178.3,492.8c-3.2,0-5.1,2-5.1,5.1c0,3.1,1.9,5.1,5.2,5.1c3.3,0,5.2-2,5.2-5.1C183.6,494.8,181.6,492.8,178.3,492.8z"/>
		<path class="st0" d="M202.2,500c-0.6,2.6-2.7,4.6-6.2,4.6c-4.2,0-6.9-2.8-6.9-6.7c0-4,2.6-6.8,7-6.8c5.1,0,7.8,3.8,7.8,9.7
			c0,6.2-2.5,10.6-7.9,10.6c-3.8,0-6.4-2.2-6.7-5.8l1.9-0.1c0.4,2.6,1.8,4.4,4.8,4.4C200.5,509.9,202.3,505.7,202.2,500z
			 M196.1,492.8c-3.2,0-5.1,2-5.1,5.1c0,3.1,1.9,5.1,5.2,5.1c3.3,0,5.2-2,5.2-5.1C201.4,494.8,199.4,492.8,196.1,492.8z"/>
		<path class="st0" d="M214.2,503.7v-12.2h2v12.4c0,3.9,2.1,5.8,5.7,5.8s5.8-1.9,5.8-5.8v-12.5h1.9v12.2c0,5.7-3.4,7.8-7.7,7.8
			S214.2,509.4,214.2,503.7z"/>
	</g>
	<g>
		<path class="st0" d="M374.2,494.3c2.7,0,3.8-0.9,4.5-3h1.1V511h-2v-15.5h-3.7V494.3z"/>
		<path class="st0" d="M383.6,493.3v-1.8H397v1c-4.8,5.1-6.8,11.8-6.9,18.6h-2.1c0.1-7.1,2.8-13.7,6.7-17.7H383.6z"/>
		<path class="st0" d="M398.9,494.3c2.7,0,3.8-0.9,4.5-3h1.1V511h-2v-15.5h-3.7V494.3z"/>
		<path class="st0" d="M416.1,503.7v-12.2h2v12.4c0,3.9,2.1,5.8,5.7,5.8s5.8-1.9,5.8-5.8v-12.5h1.9v12.2c0,5.7-3.4,7.8-7.7,7.8
			S416.1,509.4,416.1,503.7z"/>
	</g>
	<g>
		<path class="st0" d="M595.7,509.3v1.7h-14.1v-0.9l5.6-4.9c3.1-2.7,5.7-5,5.7-8.1c0-2.6-1.5-4.4-4.4-4.4c-2.9,0-4.7,1.8-4.7,5
			c0,0.6,0.1,1.2,0.2,1.8l-2-0.1c-0.1-0.6-0.2-1.2-0.2-1.8c0-4,2.6-6.5,6.6-6.5c4.5,0,6.4,2.7,6.4,5.9c0,3.6-3.4,6.6-6.1,8.9l-4,3.4
			H595.7z"/>
		<path class="st0" d="M597.6,494.3c2.7,0,3.8-0.9,4.5-3h1.1V511h-2v-15.5h-3.7V494.3z"/>
		<path class="st0" d="M621.6,509.3v1.7h-14.1v-0.9l5.5-4.9c3.1-2.7,5.7-5,5.7-8.1c0-2.6-1.5-4.4-4.4-4.4c-2.9,0-4.7,1.8-4.7,5
			c0,0.6,0.1,1.2,0.2,1.8l-2-0.1c-0.1-0.6-0.2-1.2-0.2-1.8c0-4,2.6-6.5,6.6-6.5c4.5,0,6.4,2.7,6.4,5.9c0,3.6-3.4,6.6-6.1,8.9l-4,3.4
			H621.6z"/>
		<path class="st0" d="M631.3,503.7v-12.2h2v12.4c0,3.9,2.1,5.8,5.7,5.8s5.8-1.9,5.8-5.8v-12.5h1.9v12.2c0,5.7-3.4,7.8-7.7,7.8
			S631.3,509.4,631.3,503.7z"/>
	</g>
	<g>
		<path class="st0" d="M745.9,511v-19.5h2v8.6h12.2v-8.6h2V511h-2v-9.3h-12.2v9.3H745.9z"/>
		<path class="st0" d="M778.9,506.5c-0.7,3.1-2.9,5-6.2,5c-3.9,0-6.8-2.8-6.8-6.9c0-4.2,2.9-7.3,6.7-7.3c4.2,0,6.3,3,6.3,6.7v0.9
			h-11.1c0.1,3,2.2,5.1,4.9,5.1c2.5,0,4-1.2,4.6-3.6L778.9,506.5z M776.9,503.5c-0.1-2.5-1.5-4.7-4.3-4.7c-2.7,0-4.4,2.2-4.7,4.7
			H776.9z"/>
		<path class="st0" d="M788.5,504l5.7,7.1h-2.3l-4.5-5.7l-4.5,5.7h-2.1l5.6-7l-5.1-6.5h2.3l4,5.1l3.9-5.1h2.1L788.5,504z"/>
		<path class="st0" d="M803.1,501.3c0-6,4.1-10.1,9.4-10.1c5.5,0,8.6,3,8.9,8.1l-1.9,0.1c-0.2-4-2.7-6.6-7-6.6
			c-4.3,0-7.4,3.3-7.4,8.5c0,5.2,3.1,8.5,7.6,8.5c4.2,0,6.8-2.8,7-6.6h-6.4v-1.6h8.1v9.5h-1.8v-3.8c-0.8,2.7-3.8,4.2-7,4.2
			C807.1,511.4,803.1,507.4,803.1,501.3z"/>
		<path class="st0" d="M833.5,499.5c-0.8-0.4-1.2-0.5-2-0.5c-2,0-3.5,2-3.5,4.7v7.4H826v-13.5h1.9v2.8c0.5-1.6,1.9-3.2,3.9-3.2
			c0.8,0,1.4,0.2,1.9,0.6L833.5,499.5z"/>
		<path class="st0" d="M848.3,506.5c-0.7,3.1-2.9,5-6.2,5c-3.9,0-6.8-2.8-6.8-6.9c0-4.2,2.9-7.3,6.7-7.3c4.2,0,6.3,3,6.3,6.7v0.9
			h-11.1c0.1,3,2.2,5.1,4.9,5.1c2.5,0,4-1.2,4.6-3.6L848.3,506.5z M846.3,503.5c-0.1-2.5-1.5-4.7-4.3-4.7c-2.7,0-4.4,2.2-4.7,4.7
			H846.3z"/>
		<path class="st0" d="M864.2,506.5c-0.7,3.1-2.9,5-6.2,5c-3.9,0-6.8-2.8-6.8-6.9c0-4.2,2.9-7.3,6.7-7.3c4.2,0,6.3,3,6.3,6.7v0.9
			h-11.1c0.1,3,2.2,5.1,4.9,5.1c2.5,0,4-1.2,4.6-3.6L864.2,506.5z M862.2,503.5c-0.1-2.5-1.5-4.7-4.3-4.7c-2.7,0-4.4,2.2-4.7,4.7
			H862.2z"/>
		<path class="st0" d="M869.9,511H868v-13.5h1.9v2.5c0.7-1.6,2.5-2.9,4.5-2.9c3.5,0,4.9,2.3,4.9,5.5v8.3h-1.9v-8.4
			c0-2.4-1.2-3.9-3.5-3.9c-2.1,0-4,1.7-4,4.3V511z"/>
		<path class="st0" d="M890.2,503.7v-12.2h2v12.4c0,3.9,2.1,5.8,5.7,5.8s5.8-1.9,5.8-5.8v-12.5h1.9v12.2c0,5.7-3.4,7.8-7.7,7.8
			S890.2,509.4,890.2,503.7z"/>
	</g>
	<g>
		<path class="st0" d="M1005.5,494.3c2.7,0,3.8-0.9,4.5-3h1.1V511h-2v-15.5h-3.7V494.3z"/>
		<path class="st0" d="M1023.5,511.4c-5.1,0-7.9-3.7-7.9-10.1c0-6.5,2.9-10.1,7.9-10.1s7.9,3.7,7.9,10.1
			C1031.4,507.8,1028.5,511.4,1023.5,511.4z M1023.5,492.7c-3.9,0-5.9,2.9-5.9,8.6c0,5.7,1.9,8.6,5.9,8.6s5.9-2.9,5.9-8.6
			C1029.3,495.6,1027.4,492.7,1023.5,492.7z"/>
		<path class="st0" d="M1033.7,494.3c2.7,0,3.8-0.9,4.5-3h1.1V511h-2v-15.5h-3.7V494.3z"/>
		<path class="st0" d="M1050.9,503.7v-12.2h2v12.4c0,3.9,2.1,5.8,5.7,5.8s5.8-1.9,5.8-5.8v-12.5h1.9v12.2c0,5.7-3.4,7.8-7.7,7.8
			S1050.9,509.4,1050.9,503.7z"/>
	</g>
	<g>
		<path class="st0" d="M1316.7,509.3v1.7h-14.1v-0.9l5.5-4.9c3.1-2.7,5.7-5,5.7-8.1c0-2.6-1.5-4.4-4.4-4.4c-2.9,0-4.7,1.8-4.7,5
			c0,0.6,0.1,1.2,0.2,1.8l-2-0.1c-0.1-0.6-0.2-1.2-0.2-1.8c0-4,2.6-6.5,6.6-6.5c4.5,0,6.4,2.7,6.4,5.9c0,3.6-3.4,6.6-6.1,8.9l-4,3.4
			H1316.7z"/>
		<path class="st0" d="M1333.2,509.3v1.7H1319v-0.9l5.5-4.9c3.1-2.7,5.7-5,5.7-8.1c0-2.6-1.5-4.4-4.4-4.4c-2.9,0-4.7,1.8-4.7,5
			c0,0.6,0.1,1.2,0.2,1.8l-2-0.1c-0.1-0.6-0.2-1.2-0.2-1.8c0-4,2.6-6.5,6.6-6.5c4.5,0,6.4,2.7,6.4,5.9c0,3.6-3.4,6.6-6.1,8.9l-4,3.4
			H1333.2z"/>
		<path class="st0" d="M1335.1,494.3c2.7,0,3.8-0.9,4.5-3h1.1V511h-2v-15.5h-3.7V494.3z"/>
		<path class="st0" d="M1352.3,503.7v-12.2h2v12.4c0,3.9,2.1,5.8,5.7,5.8c3.6,0,5.8-1.9,5.8-5.8v-12.5h1.9v12.2
			c0,5.7-3.4,7.8-7.7,7.8S1352.3,509.4,1352.3,503.7z"/>
	</g>
	<g>
		<path class="st0" d="M1505.6,493.3v-1.8h13.5v1c-4.8,5.1-6.8,11.8-6.9,18.6h-2.1c0.1-7.1,2.8-13.7,6.7-17.7H1505.6z"/>
		<path class="st0" d="M1534,493.3h-9.6c0,1.1-0.6,5.9-0.8,7c1-1.2,2.7-2.3,5-2.3c4.4,0,6.7,3,6.7,6.5c0,4-2.8,6.8-7,6.8
			c-4.6,0-7.3-3-7.1-7.3l2,0.2c0,3.3,1.7,5.6,5.2,5.6c3.1,0,4.9-2,4.9-5.2c0-2.9-1.9-4.9-4.9-4.9c-2.4,0-4,1.3-4.8,2.8l-2-0.1
			c0.5-2.7,1.1-7.7,1.2-10.9h11.2V493.3z"/>
		<path class="st0" d="M1537.4,494.3c2.7,0,3.8-0.9,4.5-3h1.1V511h-2v-15.5h-3.7V494.3z"/>
		<path class="st0" d="M1561.4,509.3v1.7h-14.1v-0.9l5.5-4.9c3.1-2.7,5.7-5,5.7-8.1c0-2.6-1.5-4.4-4.4-4.4c-2.9,0-4.7,1.8-4.7,5
			c0,0.6,0.1,1.2,0.2,1.8l-2-0.1c-0.1-0.6-0.2-1.2-0.2-1.8c0-4,2.6-6.5,6.6-6.5c4.5,0,6.4,2.7,6.4,5.9c0,3.6-3.4,6.6-6.1,8.9l-4,3.4
			H1561.4z"/>
		<path class="st0" d="M1571.1,503.7v-12.2h2v12.4c0,3.9,2.1,5.8,5.7,5.8s5.8-1.9,5.8-5.8v-12.5h1.9v12.2c0,5.7-3.4,7.8-7.7,7.8
			S1571.1,509.4,1571.1,503.7z"/>
	</g>
	<g>
		<path class="st0" d="M168.3,976.3v1.7h-14.1v-0.9l5.5-4.9c3.1-2.7,5.7-5,5.7-8.1c0-2.6-1.5-4.4-4.4-4.4c-2.9,0-4.7,1.8-4.7,5
			c0,0.6,0.1,1.2,0.2,1.8l-2-0.1c-0.1-0.6-0.2-1.2-0.2-1.8c0-4,2.6-6.5,6.6-6.5c4.5,0,6.4,2.7,6.4,5.9c0,3.6-3.4,6.6-6.1,8.9l-4,3.4
			H168.3z"/>
		<path class="st0" d="M183.8,967c-0.6,2.6-2.7,4.6-6.2,4.6c-4.2,0-6.9-2.8-6.9-6.7c0-4,2.6-6.8,7-6.8c5.1,0,7.8,3.8,7.8,9.7
			c0,6.2-2.5,10.6-7.9,10.6c-3.8,0-6.4-2.2-6.7-5.8l1.9-0.1c0.4,2.6,1.8,4.4,4.8,4.4C182.1,976.9,184,972.7,183.8,967z M177.8,959.8
			c-3.2,0-5.1,2-5.1,5.1c0,3.1,1.9,5.1,5.2,5.1c3.3,0,5.2-2,5.2-5.1C183.1,961.8,181,959.8,177.8,959.8z"/>
		<path class="st0" d="M196.6,978.4c-5.1,0-7.9-3.7-7.9-10.1c0-6.5,2.9-10.1,7.9-10.1s7.9,3.7,7.9,10.1
			C204.5,974.8,201.6,978.4,196.6,978.4z M196.6,959.7c-3.9,0-5.9,2.9-5.9,8.6c0,5.7,1.9,8.6,5.9,8.6s5.9-2.9,5.9-8.6
			C202.4,962.6,200.5,959.7,196.6,959.7z"/>
		<path class="st0" d="M214.7,970.7v-12.2h2v12.4c0,3.9,2.1,5.8,5.7,5.8s5.8-1.9,5.8-5.8v-12.5h1.9v12.2c0,5.7-3.4,7.8-7.7,7.8
			S214.7,976.4,214.7,970.7z"/>
	</g>
	<g>
		<path class="st0" d="M377.5,970.9h3.6v1.6h-3.6v5.5h-1.9v-5.5h-10.4v-1.9l10-12.1h2.4V970.9z M366.8,970.9h8.7v-10.6L366.8,970.9z
			"/>
		<path class="st0" d="M383.3,972.9c0-2.6,2-4.3,4.1-4.7c-2.1-0.7-3.4-2.4-3.4-4.7c0-3.4,2.8-5.4,6.5-5.4c3.7,0,6.5,2,6.5,5.4
			c0,2.3-1.3,4-3.4,4.7c2.1,0.4,4.1,2.1,4.1,4.7c0,3.4-2.7,5.5-7.2,5.5S383.3,976.3,383.3,972.9z M385.4,972.9c0,2.5,1.8,4,5.1,4
			c3.3,0,5.1-1.5,5.1-4c0-2.5-1.8-3.8-5.1-3.8C387.2,969.1,385.4,970.4,385.4,972.9z M386,963.7c0,2.5,1.9,3.9,4.5,3.9
			c2.7,0,4.5-1.4,4.5-3.9c0-2.7-1.9-4-4.5-4C387.8,959.6,386,961,386,963.7z"/>
		<path class="st0" d="M413.5,967c-0.6,2.6-2.7,4.6-6.2,4.6c-4.2,0-6.9-2.8-6.9-6.7c0-4,2.6-6.8,7-6.8c5.1,0,7.8,3.8,7.8,9.7
			c0,6.2-2.5,10.6-7.9,10.6c-3.8,0-6.4-2.2-6.7-5.8l1.9-0.1c0.4,2.6,1.8,4.4,4.8,4.4C411.7,976.9,413.6,972.7,413.5,967z
			 M407.4,959.8c-3.2,0-5.1,2-5.1,5.1c0,3.1,1.9,5.1,5.2,5.1c3.3,0,5.2-2,5.2-5.1C412.7,961.8,410.7,959.8,407.4,959.8z"/>
		<path class="st0" d="M425.4,970.7v-12.2h2v12.4c0,3.9,2.1,5.8,5.7,5.8s5.8-1.9,5.8-5.8v-12.5h1.9v12.2c0,5.7-3.4,7.8-7.7,7.8
			S425.4,976.4,425.4,970.7z"/>
	</g>
	<g>
		<path class="st0" d="M581.3,961.3c2.7,0,3.8-0.9,4.5-3h1.1V978h-2v-15.5h-3.7V961.3z"/>
		<path class="st0" d="M590.7,960.3v-1.8h13.5v1c-4.8,5.1-6.8,11.8-6.9,18.6h-2.1c0.1-7.1,2.8-13.7,6.7-17.7H590.7z"/>
		<path class="st0" d="M607.9,969.6c0.6-2.6,2.7-4.6,6.2-4.6c4.2,0,6.9,2.8,6.9,6.7c0,4-2.6,6.8-7,6.8c-5.1,0-7.8-3.8-7.8-9.7
			c0-6.2,2.5-10.6,7.9-10.6c3.8,0,6.4,2.2,6.7,5.8l-1.9,0.1c-0.4-2.6-1.8-4.4-4.8-4.4C609.6,959.7,607.7,963.8,607.9,969.6z
			 M613.9,976.8c3.2,0,5.1-2,5.1-5.1c0-3.1-1.9-5.1-5.2-5.1c-3.3,0-5.2,2-5.2,5.1C608.6,974.8,610.7,976.8,613.9,976.8z"/>
		<path class="st0" d="M631.1,970.7v-12.2h2v12.4c0,3.9,2.1,5.8,5.7,5.8s5.8-1.9,5.8-5.8v-12.5h1.9v12.2c0,5.7-3.4,7.8-7.7,7.8
			S631.1,976.4,631.1,970.7z"/>
	</g>
	<g>
		<path class="st0" d="M799.5,969c-0.9,0-1.5,0.1-2,0.1v-1.8c0.5,0.1,1,0.1,2,0.1c2.3,0,4.4-0.9,4.4-3.7c0-2.3-1.5-4-4.6-4
			c-3,0-5,1.9-5,5.4l-1.9-0.1c0-4,2.7-6.9,6.9-6.9c4.2,0,6.5,2.2,6.5,5.4c0,2.5-1.9,4.3-3.8,4.6c2.3,0.3,4.2,2.1,4.2,4.7
			c0,3.1-2.6,5.5-6.9,5.5c-4.5,0-7.3-2.6-7.3-6.9l1.9,0.1c0.1,3.4,2.2,5.2,5.5,5.2c2.9,0,4.9-1.4,4.9-4.1
			C804.3,970.3,802.3,969,799.5,969z"/>
		<path class="st0" d="M822.1,960.3h-9.6c0,1.1-0.6,5.9-0.8,7c1-1.2,2.7-2.3,5-2.3c4.4,0,6.7,3,6.7,6.5c0,4-2.8,6.8-7,6.8
			c-4.6,0-7.3-3-7.1-7.3l2,0.2c0,3.3,1.7,5.6,5.2,5.6c3.1,0,4.9-2,4.9-5.2c0-2.9-1.9-4.9-4.9-4.9c-2.4,0-4,1.3-4.8,2.8l-2-0.1
			c0.5-2.7,1.1-7.7,1.2-10.9h11.2V960.3z"/>
		<path class="st0" d="M825.5,961.3c2.7,0,3.8-0.9,4.5-3h1.1V978h-2v-15.5h-3.7V961.3z"/>
		<path class="st0" d="M842.7,970.7v-12.2h2v12.4c0,3.9,2.1,5.8,5.7,5.8s5.8-1.9,5.8-5.8v-12.5h1.9v12.2c0,5.7-3.4,7.8-7.7,7.8
			S842.7,976.4,842.7,970.7z"/>
	</g>
	<g>
		<path class="st0" d="M991.3,960.3v-1.8h13.5v1c-4.8,5.1-6.8,11.8-6.9,18.6h-2.1c0.1-7.1,2.8-13.7,6.7-17.7H991.3z"/>
		<path class="st0" d="M1017,970.9h3.6v1.6h-3.6v5.5h-1.9v-5.5h-10.4v-1.9l10-12.1h2.4V970.9z M1006.3,970.9h8.7v-10.6L1006.3,970.9
			z"/>
		<path class="st0" d="M1035.7,967c-0.6,2.6-2.7,4.6-6.2,4.6c-4.2,0-6.9-2.8-6.9-6.7c0-4,2.6-6.8,7-6.8c5.1,0,7.8,3.8,7.8,9.7
			c0,6.2-2.5,10.6-7.9,10.6c-3.8,0-6.4-2.2-6.7-5.8l1.9-0.1c0.4,2.6,1.8,4.4,4.8,4.4C1033.9,976.9,1035.8,972.7,1035.7,967z
			 M1029.6,959.8c-3.2,0-5.1,2-5.1,5.1c0,3.1,1.9,5.1,5.2,5.1c3.3,0,5.2-2,5.2-5.1C1034.9,961.8,1032.9,959.8,1029.6,959.8z"/>
		<path class="st0" d="M1053.5,967c-0.6,2.6-2.7,4.6-6.2,4.6c-4.2,0-6.9-2.8-6.9-6.7c0-4,2.6-6.8,7-6.8c5.1,0,7.8,3.8,7.8,9.7
			c0,6.2-2.5,10.6-7.9,10.6c-3.8,0-6.4-2.2-6.7-5.8l1.9-0.1c0.4,2.6,1.8,4.4,4.8,4.4C1051.7,976.9,1053.6,972.7,1053.5,967z
			 M1047.4,959.8c-3.2,0-5.1,2-5.1,5.1c0,3.1,1.9,5.1,5.2,5.1s5.2-2,5.2-5.1C1052.7,961.8,1050.7,959.8,1047.4,959.8z"/>
		<path class="st0" d="M1065.4,970.7v-12.2h2v12.4c0,3.9,2.1,5.8,5.7,5.8c3.6,0,5.8-1.9,5.8-5.8v-12.5h1.9v12.2
			c0,5.7-3.4,7.8-7.7,7.8S1065.4,976.4,1065.4,970.7z"/>
	</g>
	<g>
		<path class="st0" d="M1520.2,970.9h3.6v1.6h-3.6v5.5h-1.9v-5.5h-10.4v-1.9l10-12.1h2.4V970.9z M1509.5,970.9h8.7v-10.6
			L1509.5,970.9z"/>
		<path class="st0" d="M1527.8,969.6c0.6-2.6,2.7-4.6,6.2-4.6c4.2,0,6.9,2.8,6.9,6.7c0,4-2.6,6.8-7,6.8c-5.1,0-7.8-3.8-7.8-9.7
			c0-6.2,2.5-10.6,7.9-10.6c3.8,0,6.4,2.2,6.7,5.8l-1.9,0.1c-0.4-2.6-1.8-4.4-4.8-4.4C1529.5,959.7,1527.7,963.8,1527.8,969.6z
			 M1533.9,976.8c3.2,0,5.1-2,5.1-5.1c0-3.1-1.9-5.1-5.2-5.1c-3.3,0-5.2,2-5.2,5.1C1528.5,974.8,1530.6,976.8,1533.9,976.8z"/>
		<path class="st0" d="M1545.6,969.6c0.6-2.6,2.7-4.6,6.2-4.6c4.2,0,6.9,2.8,6.9,6.7c0,4-2.6,6.8-7,6.8c-5.1,0-7.8-3.8-7.8-9.7
			c0-6.2,2.5-10.6,7.9-10.6c3.8,0,6.4,2.2,6.7,5.8l-1.9,0.1c-0.4-2.6-1.8-4.4-4.8-4.4C1547.3,959.7,1545.5,963.8,1545.6,969.6z
			 M1551.7,976.8c3.2,0,5.1-2,5.1-5.1c0-3.1-1.9-5.1-5.2-5.1s-5.2,2-5.2,5.1C1546.3,974.8,1548.4,976.8,1551.7,976.8z"/>
		<path class="st0" d="M1568.8,970.7v-12.2h2v12.4c0,3.9,2.1,5.8,5.7,5.8s5.8-1.9,5.8-5.8v-12.5h1.9v12.2c0,5.7-3.4,7.8-7.7,7.8
			S1568.8,976.4,1568.8,970.7z"/>
	</g>
	<g>
		<path class="st0" d="M1734.4,509.3v1.7h-14.1v-0.9l5.5-4.9c3.1-2.7,5.7-5,5.7-8.1c0-2.6-1.5-4.4-4.4-4.4c-2.9,0-4.7,1.8-4.7,5
			c0,0.6,0.1,1.2,0.2,1.8l-2-0.1c-0.1-0.6-0.2-1.2-0.2-1.8c0-4,2.6-6.5,6.6-6.5c4.5,0,6.4,2.7,6.4,5.9c0,3.6-3.4,6.6-6.1,8.9l-4,3.4
			H1734.4z"/>
		<path class="st0" d="M1738.6,502.6c0.6-2.6,2.7-4.6,6.2-4.6c4.2,0,6.9,2.8,6.9,6.7c0,4-2.6,6.8-7,6.8c-5.1,0-7.8-3.8-7.8-9.7
			c0-6.2,2.5-10.6,7.9-10.6c3.8,0,6.4,2.2,6.7,5.8l-1.9,0.1c-0.4-2.6-1.8-4.4-4.8-4.4C1740.3,492.7,1738.4,496.8,1738.6,502.6z
			 M1744.6,509.8c3.2,0,5.1-2,5.1-5.1c0-3.1-1.9-5.1-5.2-5.1s-5.2,2-5.2,5.1C1739.3,507.8,1741.3,509.8,1744.6,509.8z"/>
		<path class="st0" d="M1761.9,502c-0.9,0-1.5,0.1-2,0.1v-1.8c0.5,0.1,1,0.1,2,0.1c2.3,0,4.4-0.9,4.4-3.7c0-2.3-1.6-4-4.6-4
			c-3,0-5,1.9-5,5.4l-1.9-0.1c0-4,2.7-6.9,6.9-6.9c4.2,0,6.5,2.2,6.5,5.4c0,2.5-1.9,4.3-3.8,4.6c2.3,0.3,4.2,2.1,4.2,4.7
			c0,3.1-2.6,5.5-6.9,5.5c-4.5,0-7.3-2.6-7.3-6.9l1.9,0.1c0.1,3.4,2.2,5.2,5.5,5.2c2.9,0,4.9-1.4,4.9-4.1
			C1766.7,503.3,1764.6,502,1761.9,502z"/>
		<path class="st0" d="M1778.6,503.7v-12.2h2v12.4c0,3.9,2.1,5.8,5.7,5.8s5.8-1.9,5.8-5.8v-12.5h1.9v12.2c0,5.7-3.4,7.8-7.7,7.8
			S1778.6,509.4,1778.6,503.7z"/>
	</g>
	<g>
		<path class="st0" d="M497.8,692.8c0.2,5.3,3.8,8.3,8.7,8.3c4.4,0,7.2-2,7.2-5.3c0-2.7-1.6-4.2-5.5-5l-5.5-1.1
			c-3.9-0.8-6.5-2.8-6.5-6.9c0-4.5,3.6-7.7,9.2-7.7c6.5,0,10.4,3.6,10.4,9.7l-2.5,0.2c-0.1-4.9-3-7.8-7.9-7.8
			c-4.3,0-6.7,2.1-6.7,5.5c0,3,1.9,4,5.5,4.7l4.8,0.9c4.7,0.9,7.2,2.9,7.2,7.1c0,4.7-4.1,7.6-9.8,7.6c-6.4,0-11.2-3.6-11.2-10.2
			L497.8,692.8z"/>
		<path class="st0" d="M533.8,702.7l-9.1-24.4h-0.2v24.4h-2.6v-27h4.4L535,699h0.1l8.1-23.3h4.4v27h-2.7v-24.4h-0.2l-8.7,24.4H533.8
			z"/>
		<path class="st0" d="M554.5,702.7v-27h17.8v2.3h-15.2v10h12.1v2.3h-12.1v12.4H554.5z"/>
		<path class="st0" d="M586.5,675.7l11.4,27h-2.9l-3.6-8.7h-12.8l-3.5,8.7h-2.7l11.1-27H586.5z M579.6,691.7h10.9l-5.4-13.1h-0.2
			L579.6,691.7z"/>
		<path class="st0" d="M614.3,702.7h-2.7v-27h9.2c6.6,0,10.3,3.1,10.3,8.2s-3.7,8.2-10.3,8.2h-6.5V702.7z M620.8,689.9
			c5.1,0,7.7-2.1,7.7-5.9s-2.6-5.9-7.7-5.9h-6.5v11.9H620.8z"/>
		<path class="st0" d="M645.8,675.7l11.4,27h-2.9l-3.6-8.7h-12.8l-3.5,8.7h-2.7l11.1-27H645.8z M638.8,691.7h10.9l-5.4-13.1h-0.2
			L638.8,691.7z"/>
		<path class="st0" d="M662.2,692.8c0.2,5.3,3.8,8.3,8.7,8.3c4.4,0,7.2-2,7.2-5.3c0-2.7-1.6-4.2-5.5-5l-5.5-1.1
			c-3.9-0.8-6.5-2.8-6.5-6.9c0-4.5,3.6-7.7,9.2-7.7c6.5,0,10.4,3.6,10.4,9.7l-2.5,0.2c-0.1-4.9-3-7.8-7.9-7.8
			c-4.3,0-6.7,2.1-6.7,5.5c0,3,1.9,4,5.5,4.7l4.8,0.9c4.7,0.9,7.2,2.9,7.2,7.1c0,4.7-4.1,7.6-9.8,7.6c-6.4,0-11.2-3.6-11.2-10.2
			L662.2,692.8z"/>
		<path class="st0" d="M692.9,702.7V678h-10v-2.3h22.8v2.3h-10.1v24.7H692.9z"/>
		<path class="st0" d="M729.3,702.7h-18.7v-27h18.3v2.3h-15.7v9.6h12.5v2.3h-12.5v10.6h16V702.7z"/>
		<path class="st0" d="M737.8,675.7v24.7h15.5v2.3h-18.2v-27H737.8z"/>
	</g>
	<g>
		<path class="st0" d="M1419.8,692.8c0.2,5.3,3.8,8.3,8.7,8.3c4.4,0,7.2-2,7.2-5.3c0-2.7-1.6-4.2-5.5-5l-5.5-1.1
			c-3.9-0.8-6.5-2.8-6.5-6.9c0-4.5,3.6-7.7,9.2-7.7c6.5,0,10.4,3.6,10.4,9.7l-2.5,0.2c-0.1-4.9-3-7.8-7.9-7.8
			c-4.3,0-6.7,2.1-6.7,5.5c0,3,1.9,4,5.5,4.7l4.8,0.9c4.7,0.9,7.2,2.9,7.2,7.1c0,4.7-4.1,7.6-9.8,7.6c-6.4,0-11.2-3.6-11.2-10.2
			L1419.8,692.8z"/>
		<path class="st0" d="M1455.8,702.7l-9.1-24.4h-0.2v24.4h-2.6v-27h4.4l8.6,23.3h0.1l8.1-23.3h4.4v27h-2.7v-24.4h-0.2l-8.7,24.4
			H1455.8z"/>
		<path class="st0" d="M1476.5,702.7v-27h17.8v2.3h-15.2v10h12.1v2.3h-12.1v12.4H1476.5z"/>
		<path class="st0" d="M1508.5,675.7l11.4,27h-2.9l-3.6-8.7h-12.8l-3.5,8.7h-2.7l11.1-27H1508.5z M1501.6,691.7h10.9l-5.4-13.1h-0.2
			L1501.6,691.7z"/>
		<path class="st0" d="M1536.3,702.7h-2.7v-27h9.2c6.6,0,10.3,3.1,10.3,8.2s-3.7,8.2-10.3,8.2h-6.5V702.7z M1542.8,689.9
			c5.1,0,7.7-2.1,7.7-5.9s-2.6-5.9-7.7-5.9h-6.5v11.9H1542.8z"/>
		<path class="st0" d="M1567.8,675.7l11.4,27h-2.9l-3.6-8.7h-12.8l-3.5,8.7h-2.7l11.1-27H1567.8z M1560.8,691.7h10.9l-5.4-13.1h-0.2
			L1560.8,691.7z"/>
		<path class="st0" d="M1584.2,692.8c0.2,5.3,3.8,8.3,8.7,8.3c4.4,0,7.2-2,7.2-5.3c0-2.7-1.6-4.2-5.5-5l-5.5-1.1
			c-3.9-0.8-6.5-2.8-6.5-6.9c0-4.5,3.6-7.7,9.2-7.7c6.5,0,10.4,3.6,10.4,9.7l-2.5,0.2c-0.1-4.9-3-7.8-7.9-7.8
			c-4.3,0-6.7,2.1-6.7,5.5c0,3,1.9,4,5.5,4.7l4.8,0.9c4.7,0.9,7.2,2.9,7.2,7.1c0,4.7-4.1,7.6-9.8,7.6c-6.4,0-11.2-3.6-11.2-10.2
			L1584.2,692.8z"/>
		<path class="st0" d="M1614.9,702.7V678h-10v-2.3h22.8v2.3h-10.1v24.7H1614.9z"/>
		<path class="st0" d="M1651.3,702.7h-18.7v-27h18.3v2.3h-15.7v9.6h12.5v2.3h-12.5v10.6h16V702.7z"/>
		<path class="st0" d="M1659.8,675.7v24.7h15.5v2.3h-18.2v-27H1659.8z"/>
	</g>
	<g>
		<path class="st0" d="M1356.6,224.7v-27h17.8v2.3h-15.2v10h12.1v2.3h-12.1v12.4H1356.6z"/>
		<path class="st0" d="M1388.6,197.7l11.4,27h-2.9l-3.6-8.7h-12.8l-3.5,8.7h-2.7l11.1-27H1388.6z M1381.7,213.7h10.9l-5.4-13.1h-0.2
			L1381.7,213.7z"/>
		<path class="st0" d="M1411.4,224.7l-11-27h2.8l9.8,24h0.2l9.5-24h2.8l-11,27H1411.4z"/>
		<path class="st0" d="M1440.8,225.2c-7.9,0-13.2-5.7-13.2-14s5.3-14,13.2-14c7.9,0,13.2,5.7,13.2,14S1448.6,225.2,1440.8,225.2z
			 M1440.8,199.5c-6.3,0-10.4,4.6-10.4,11.7s4.1,11.7,10.4,11.7c6.3,0,10.4-4.6,10.4-11.7S1447.1,199.5,1440.8,199.5z"/>
		<path class="st0" d="M1477.3,224.7c-0.5-0.7-0.9-2.8-1.1-6.1c-0.2-3-1.6-5.3-5.6-5.3h-8.4v11.4h-2.7v-27h10.2
			c6.8,0,10.1,3.1,10.1,7.8c0,4.2-2.9,6.3-6.2,6.7c3.4,0.6,5,2.8,5.3,5.9c0.3,3.9,0.5,5.6,1.4,6.5H1477.3z M1469.8,211.1
			c5,0,7.2-2,7.2-5.6c0-3.3-2.2-5.5-7.2-5.5h-7.6v11.1H1469.8z"/>
		<path class="st0" d="M1488.7,197.7v27h-2.7v-27H1488.7z"/>
		<path class="st0" d="M1503.6,224.7V200h-10v-2.3h22.8v2.3h-10.1v24.7H1503.6z"/>
		<path class="st0" d="M1539.9,224.7h-18.7v-27h18.3v2.3h-15.7v9.6h12.5v2.3h-12.5v10.6h16V224.7z"/>
		<path class="st0" d="M1566.5,197.7l11.4,27h-2.9l-3.6-8.7h-12.8l-3.5,8.7h-2.7l11.1-27H1566.5z M1559.6,213.7h10.9l-5.4-13.1h-0.2
			L1559.6,213.7z"/>
		<path class="st0" d="M1593.1,197.2c7.5,0,11.9,4.6,12.4,11.6l-2.6,0.1c-0.3-5.5-3.8-9.5-9.8-9.5c-5.9,0-10.3,4.5-10.3,11.7
			s4.4,11.7,10.3,11.7c5.9,0,9.5-4,9.8-9.5l2.6,0.1c-0.5,7-4.8,11.6-12.4,11.6c-7.4,0-13.1-5.7-13.1-14S1585.8,197.2,1593.1,197.2z"
			/>
		<path class="st0" d="M1622.9,197.2c7.5,0,11.9,4.6,12.4,11.6l-2.6,0.1c-0.3-5.5-3.8-9.5-9.8-9.5c-5.9,0-10.3,4.5-10.3,11.7
			s4.4,11.7,10.3,11.7c5.9,0,9.5-4,9.8-9.5l2.6,0.1c-0.5,7-4.8,11.6-12.4,11.6c-7.4,0-13.1-5.7-13.1-14S1615.5,197.2,1622.9,197.2z"
			/>
		<path class="st0" d="M1659.4,224.7h-18.7v-27h18.3v2.3h-15.7v9.6h12.5v2.3h-12.5v10.6h16V224.7z"/>
		<path class="st0" d="M1684.1,219.9v-22.2h2.6v27h-2.1l-16.8-23.2v23.2h-2.6v-27h3L1684.1,219.9z"/>
		<path class="st0" d="M1701.6,224.7V200h-10v-2.3h22.8v2.3h-10.1v24.7H1701.6z"/>
		<path class="st0" d="M1718.8,214.8c0.2,5.3,3.8,8.3,8.7,8.3c4.4,0,7.2-2,7.2-5.3c0-2.7-1.6-4.2-5.5-5l-5.5-1.1
			c-3.9-0.8-6.5-2.8-6.5-6.9c0-4.5,3.6-7.7,9.2-7.7c6.5,0,10.4,3.6,10.4,9.7l-2.5,0.2c-0.1-4.9-3-7.8-7.9-7.8
			c-4.3,0-6.7,2.1-6.7,5.5c0,3,1.9,4,5.5,4.7l4.8,0.9c4.7,0.9,7.2,2.9,7.2,7.1c0,4.7-4.1,7.6-9.8,7.6c-6.4,0-11.2-3.6-11.2-10.2
			L1718.8,214.8z"/>
	</g>
</g>
</svg>
