<?xml version="1.0" encoding="utf-8"?>
<!-- Generator: Adobe Illustrator 24.0.3, SVG Export Plug-In . SVG Version: 6.00 Build 0)  -->
<svg version="1.1" xmlns="http://www.w3.org/2000/svg" xmlns:xlink="http://www.w3.org/1999/xlink" x="0px" y="0px"
	 viewBox="0 0 1920 562" style="enable-background:new 0 0 1920 562;" xml:space="preserve">
<style type="text/css">
	.st0{fill:#242424;}
</style>
<g id="Layer_1">
	<g>
		<g>
			<g>
				<path class="st0" d="M1517,318.2v-46h-20v-11.4h53.9v11.4h-20.2v46H1517z"/>
			</g>
			<g>
				<path class="st0" d="M1559.2,295.6v-34.8h13.8v32.8c0,9.2,3.3,14,11.7,14c8.5,0,11.8-4.8,11.8-13.9v-32.9h13.8v34.8
					c0,16.8-11.1,23.7-25.5,23.7C1570.3,319.3,1559.2,312.4,1559.2,295.6z"/>
			</g>
			<g>
				<path class="st0" d="M1620.7,318.2v-57.4h42.5v11.4h-28.7v12.8h21.8v11.3h-21.8v22H1620.7z"/>
			</g>
			<g>
				<path class="st0" d="M1689.6,318.2v-46h-20v-11.4h53.9v11.4h-20.2v46H1689.6z"/>
			</g>
			<g>
				<path class="st0" d="M1739.8,297.3c0.5,7.9,6.5,11.1,13.6,11.1c6.1,0,9.9-2.4,9.9-6.2c0-3.8-3.4-4.7-8.4-5.7l-10.8-1.9
					c-9.1-1.7-15.6-6.8-15.6-16.6c0-11.3,8.8-18.3,22.8-18.3c15.6,0,24.1,7.7,24.3,20.5l-12.8,0.4c-0.4-6.7-5-10-11.7-10
					c-5.8,0-9.1,2.4-9.1,6.3c0,3.3,2.6,4.5,6.7,5.3l10.8,1.9c11.8,2.1,17.1,7.9,17.1,17.3c0,11.8-10.3,17.9-23.4,17.9
					c-15.3,0-26.2-7.6-26.2-21.5L1739.8,297.3z"/>
			</g>
		</g>
		<g>
			<path class="st0" d="M1042,14.6h335.4V110H1145v134.2h178.6V335H1145v213.6h-103V14.6z"/>
		</g>
		<g>
			<path class="st0" d="M1818.4,13v57.4c-47.2-38.9-107.7-62.2-173.6-62.2c-151,0-273.4,122.4-273.4,273.4
				c0,151,122.4,273.4,273.4,273.4c65.9,0,126.4-23.3,173.6-62.2v55.3h103.1V13H1818.4z M1644.8,455.3
				c-95.9,0-173.6-77.7-173.6-173.6c0-95.9,77.7-173.6,173.6-173.6c95.9,0,173.6,77.7,173.6,173.6
				C1818.4,377.5,1740.7,455.3,1644.8,455.3z"/>
		</g>
		<g>
			<path class="st0" d="M720.8,548.6"/>
			<g>
				<path class="st0" d="M868.4,14.6L736.8,309V144.4C736.8,64,675,5.7,589.9,5.7S443,64,443,144.4v404.2h97.8V144.4
					c0-35.5,30.7-40.9,49.1-40.9c18.3,0,49.1,5.3,49.1,40.9v404.2l81.9,0l152.1-328h1.5v328h100.9V14.6H868.4z"/>
			</g>
		</g>
		<g>
			<path class="st0" d="M106.9,344.6c12.1,77.6,34.6,116.7,104.7,116.7c55,0,94.1-19.6,94.1-61c0-41.4-18.1-55.7-136.3-92.6
				C55.7,272.3,18.8,224.1,18.8,155.6C18.8,78,82.1,5.7,196.5,5.7c92.6,0,177,42.9,195.8,143.8l-98.6,24.9
				c-12.8-40.7-37.7-74.6-97.1-74.6c-54.2,0-77.6,23.4-77.6,55s17.3,39.2,134,79.1c119,40.7,152.1,82.8,152.1,159.6
				c0,91.9-73.8,161.9-193.5,161.9c-117.5,0-195.8-61-211.6-187.5L106.9,344.6z"/>
		</g>
	</g>
</g>
<g id="Layer_2">
</g>
</svg>
