<?xml version="1.0" encoding="utf-8"?>
<!-- Generator: Adobe Illustrator 24.0.3, SVG Export Plug-In . SVG Version: 6.00 Build 0)  -->
<svg version="1.1" id="Layer_1" xmlns="http://www.w3.org/2000/svg" xmlns:xlink="http://www.w3.org/1999/xlink" x="0px" y="0px"
	 viewBox="0 0 1954.6 562" style="enable-background:new 0 0 1954.6 562;" xml:space="preserve">
<style type="text/css">
	.st0{fill:#FFFFFF;}
</style>
<rect width="1954.6" height="562"/>
<g id="Layer_1_1_">
	<g>
		<g>
			<g>
				<g>
					<polygon class="st0" points="1209.8,296.8 1209.8,276.9 1201.2,276.9 1201.2,272 1224.5,272 1224.5,276.9 1215.7,276.9 
						1215.7,296.8 					"/>
				</g>
			</g>
			<g>
				<g>
					<path class="st0" d="M1228.1,287.1V272h6v14.2c0,4,1.4,6.1,5.1,6.1c3.7,0,5.1-2.1,5.1-6V272h6v15.1c0,7.3-4.8,10.3-11,10.3
						C1232.9,297.3,1228.1,294.3,1228.1,287.1z"/>
				</g>
			</g>
			<g>
				<g>
					<polygon class="st0" points="1254.7,296.8 1254.7,272 1273.1,272 1273.1,276.9 1260.7,276.9 1260.7,282.5 1270.1,282.5 
						1270.1,287.4 1260.7,287.4 1260.7,296.9 1254.7,296.9 					"/>
				</g>
			</g>
			<g>
				<g>
					<polygon class="st0" points="1284.5,296.8 1284.5,276.9 1275.9,276.9 1275.9,272 1299.2,272 1299.2,276.9 1290.5,276.9 
						1290.5,296.8 					"/>
				</g>
			</g>
			<g>
				<g>
					<path class="st0" d="M1306.3,287.8c0.2,3.4,2.8,4.8,5.9,4.8c2.6,0,4.3-1,4.3-2.7s-1.5-2-3.6-2.5l-4.7-0.8
						c-3.9-0.7-6.8-2.9-6.8-7.2c0-4.9,3.8-7.9,9.9-7.9c6.8,0,10.4,3.3,10.5,8.9l-5.5,0.2c-0.2-2.9-2.2-4.3-5.1-4.3
						c-2.5,0-3.9,1-3.9,2.7c0,1.4,1.1,1.9,2.9,2.3l4.7,0.8c5.1,0.9,7.4,3.4,7.4,7.5c0,5.1-4.5,7.7-10.1,7.7
						c-6.6,0-11.3-3.3-11.3-9.3L1306.3,287.8z"/>
				</g>
			</g>
		</g>
		<g>
			<g>
				<polygon class="st0" points="1004.2,165.4 1149.4,165.4 1149.4,206.7 1048.8,206.7 1048.8,264.8 1126.1,264.8 1126.1,304.1 
					1048.8,304.1 1048.8,396.6 1004.2,396.6 				"/>
			</g>
		</g>
		<g>
			<g>
				<path class="st0" d="M1340.3,164.7v24.8c-20.4-16.8-46.6-26.9-75.2-26.9c-65.4,0-118.4,53-118.4,118.4s53,118.4,118.4,118.4
					c28.5,0,54.7-10.1,75.2-26.9v23.9h44.6V164.7H1340.3z M1265.1,356.2c-41.5,0-75.2-33.6-75.2-75.2s33.6-75.2,75.2-75.2
					s75.2,33.6,75.2,75.2C1340.3,322.5,1306.7,356.2,1265.1,356.2z"/>
			</g>
		</g>
		<g>
			<path class="st0" d="M865.1,396.6"/>
			<g>
				<g>
					<path class="st0" d="M932.5,165.4l-57,127.4v-71.3c0-34.8-26.8-60-63.6-60c-36.8,0-63.6,25.2-63.6,60v175h42.3v-175
						c0-15.4,13.3-17.7,21.3-17.7c7.9,0,21.3,2.3,21.3,17.7v175h35.5l65.8-142h0.6v142h43.7V165.4L932.5,165.4L932.5,165.4z"/>
				</g>
			</g>
		</g>
		<g>
			<g>
				<path class="st0" d="M602.9,308.3c5.2,33.6,15,50.5,45.3,50.5c23.8,0,40.7-8.5,40.7-26.4s-7.8-24.1-59-40.1
					c-49.2-15.3-65.2-36.2-65.2-65.8c0-33.6,27.4-64.9,76.9-64.9c40.1,0,76.6,18.6,84.8,62.3l-42.7,10.8
					c-5.5-17.6-16.3-32.3-42-32.3c-23.5,0-33.6,10.1-33.6,23.8s7.5,17,58,34.2c51.5,17.6,65.8,35.8,65.8,69.1
					c0,39.8-31.9,70.1-83.8,70.1c-50.9,0-84.8-26.4-91.6-81.2L602.9,308.3z"/>
			</g>
		</g>
	</g>
</g>
<g id="Layer_2_1_">
</g>
</svg>
