<?xml version="1.0" encoding="utf-8"?>
<!-- Generator: Adobe Illustrator 24.0.3, SVG Export Plug-In . SVG Version: 6.00 Build 0)  -->
<svg version="1.1" id="Layer_1" xmlns="http://www.w3.org/2000/svg" xmlns:xlink="http://www.w3.org/1999/xlink" x="0px" y="0px"
	 viewBox="0 0 94 105" style="enable-background:new 0 0 94 105;" xml:space="preserve">
<style type="text/css">
	.st0{fill:#9A1034;}
	.st1{fill:#FFFFFF;}
	.st2{fill:#231F20;}
	.st3{fill:#FFFFFF;stroke:#231F20;stroke-width:1.5;stroke-miterlimit:10;}
	.st4{fill:none;stroke:#231F20;stroke-width:1.5;stroke-miterlimit:10;}
</style>
<rect x="6.3" y="6.7" class="st0" width="87.7" height="98.3"/>
<g>
	<g>
		<rect x="0.8" y="0.8" class="st1" width="84.2" height="94.8"/>
		<path class="st2" d="M84.2,1.5v93.3H1.5V1.5H84.2 M85.7,0H0v96.3h85.7V0L85.7,0z"/>
	</g>
</g>
<g>
	<rect x="10.2" y="31.1" class="st3" width="66" height="45.4"/>
	<rect x="10.2" y="25.5" class="st3" width="66" height="5.6"/>
	<path class="st4" d="M76,77.1"/>
	<g>
		<line class="st4" x1="30.1" y1="28.3" x2="30.1" y2="20.4"/>
		<line class="st4" x1="43.2" y1="28.3" x2="43.2" y2="20.4"/>
		<line class="st4" x1="56.3" y1="28.3" x2="56.3" y2="20.4"/>
	</g>
</g>
<path class="st4" d="M190.4,74.8"/>
<g>
	<line class="st4" x1="18.1" y1="66.1" x2="68.9" y2="66.1"/>
	<circle class="st3" cx="30.8" cy="44.6" r="5.1"/>
	<path class="st3" d="M30.8,51.2c-3.3,0-8.1,1.9-8.1,6.6v8.3h16.1v-8.3C38.9,53.1,34.1,51.2,30.8,51.2z"/>
	<circle class="st3" cx="56" cy="44.6" r="5.1"/>
	<path class="st3" d="M56,51.2c-3.3,0-8.1,1.9-8.1,6.6v8.3h16.1v-8.3C64.1,53.1,59.3,51.2,56,51.2z"/>
	<circle class="st3" cx="43.4" cy="44.6" r="5.1"/>
	<path class="st3" d="M43.4,51.2c-3.3,0-8.1,1.9-8.1,6.6v8.3h16.1v-8.3C51.5,53.1,46.7,51.2,43.4,51.2z"/>
	<circle class="st3" cx="43.3" cy="44.6" r="5.1"/>
	<path class="st3" d="M43.3,51.2c-3.3,0-8.1,1.9-8.1,6.6v8.3h16.1v-8.3C51.4,53.1,46.6,51.2,43.3,51.2z"/>
</g>
</svg>
