<?xml version="1.0" encoding="utf-8"?>
<!-- Generator: Adobe Illustrator 24.0.3, SVG Export Plug-In . SVG Version: 6.00 Build 0)  -->
<svg version="1.1" id="Layer_1" xmlns="http://www.w3.org/2000/svg" xmlns:xlink="http://www.w3.org/1999/xlink" x="0px" y="0px"
	 viewBox="0 0 94 100" style="enable-background:new 0 0 94 100;" xml:space="preserve">
<style type="text/css">
	.st0{fill:#D5DADB;}
	.st1{fill:#FFFFFF;stroke:#231F20;stroke-width:2;stroke-miterlimit:10;}
</style>
<rect x="7.6" y="7.9" class="st0" width="86.5" height="92"/>
<rect x="1.1" y="1.1" class="st1" width="86" height="92"/>
<path class="st1" d="M78.6,26.2c-1.5,0.7-5.8,1.9-7.5,2.3c0-0.1,0-0.1-0.1-0.2c5.8-3.3,5.6-7.4,5.6-7.4c-4.2,2-6.9,2.7-8.5,2.8
	c-2.5-2.6-6-4.3-9.9-4.3c-7.6,0-13.7,6.1-13.7,13.7c0,1.1,0.1,2.2,0.4,3.3c-18.4-0.7-28.7-14-28.7-14c-5.5,12.4,4.4,18,4.4,18
	c-3.1,0.1-6.1-1.4-6.1-1.4c1.1,11.9,10.9,13.2,10.9,13.2c-2.2,1.2-6.3,0.2-6.3,0.2c4,10.2,13,9.4,13,9.4C22.2,69.5,12,67.6,12,67.6
	c17.2,10.1,35.4,7,48.4-5c11.7-10.7,11.6-26,11.5-28.9C77,30.2,78.6,26.2,78.6,26.2z"/>
</svg>
