<?xml version="1.0" encoding="utf-8"?>
<!-- Generator: Adobe Illustrator 24.0.3, SVG Export Plug-In . SVG Version: 6.00 Build 0)  -->
<svg version="1.1" id="Layer_1" xmlns="http://www.w3.org/2000/svg" xmlns:xlink="http://www.w3.org/1999/xlink" x="0px" y="0px"
	 viewBox="0 0 1036 188" style="enable-background:new 0 0 1036 188;" xml:space="preserve">
<style type="text/css">
	.st0{fill:#FFFFFF;}
</style>
<rect x="117.9" y="-1" width="799.4" height="188.8"/>
<g>
	<path class="st0" d="M164.6,34.6h42c17.3,0,31.2,5.5,41.8,16.3c10.6,11,15.9,25.2,15.9,43c0,17.8-5.3,32-15.9,42.8
		c-10.6,11-24.6,16.4-41.8,16.4h-42V34.6z M206.6,46.5h-27.9v94.6h27.9c27,0,43-17.9,43-47.3S233.3,46.5,206.6,46.5z"/>
</g>
<g>
	<path class="st0" d="M785.5,153h-14.3V34.6h14.3v52.3h69.4V34.6h14.3V153h-14.3V98.8h-69.4V153z"/>
</g>
<g>
	<path class="st0" d="M462.8,153h-14.9l-13.1-33H378l-13.1,33h-14.3l48-118.5h16.1L462.8,153z M406.8,48.8h-0.5l-23.6,59.4h47.5
		L406.8,48.8z"/>
	<path class="st0" d="M496.8,105.1v48h-14.1V34.5h45.6c26.7,0,41.7,12.6,41.7,35.2c0,16.8-10.8,29.4-27.4,33.2l32.5,50.1h-16.1
		l-30.7-48H496.8z M496.8,46.5v46.6h30.7c18.1,0,28-8.1,28-23.4c0-14.8-10.1-23.2-28-23.2H496.8z"/>
	<path class="st0" d="M646.7,153h-14.3V46.5h-44.1V34.5H691v11.9h-44.3V153z"/>
</g>
<g>
	<g>
		<path class="st0" d="M731.1,89.5v5.4h-12.4v12.4h-5.4V94.9h-12.4v-5.4h12.4V77.2h5.4v12.4H731.1z"/>
	</g>
</g>
<g>
	<g>
		<path class="st0" d="M329.1,89.5v5.4h-12.4v12.4h-5.4V94.9H299v-5.4h12.4V77.2h5.4v12.4H329.1z"/>
	</g>
</g>
</svg>
