<?xml version="1.0" encoding="utf-8"?>
<!-- Generator: Adobe Illustrator 24.0.3, SVG Export Plug-In . SVG Version: 6.00 Build 0)  -->
<svg version="1.1" id="Layer_1" xmlns="http://www.w3.org/2000/svg" xmlns:xlink="http://www.w3.org/1999/xlink" x="0px" y="0px"
	 viewBox="0 0 94 105" style="enable-background:new 0 0 94 105;" xml:space="preserve">
<style type="text/css">
	.st0{fill:#9A1034;}
	.st1{fill:#FFFFFF;stroke:#000000;stroke-width:1.5;stroke-miterlimit:10;}
	.st2{fill:none;stroke:#000000;stroke-width:1.5;stroke-miterlimit:10;}
	.st3{fill:none;stroke:#231F20;stroke-miterlimit:10;}
</style>
<rect x="6.3" y="6.7" class="st0" width="87.7" height="98.3"/>
<rect x="0.9" y="0.7" class="st1" width="84.2" height="94.8"/>
<path class="st2" d="M76,77.1"/>
<path class="st3" d="M796.5,118.8"/>
<g>
	<polygon class="st1" points="49.8,82.8 52.9,76.1 59.1,80 49.7,48.6 40.4,51.4 	"/>
	<polygon class="st1" points="36.1,82.8 33,76.1 26.8,80 36.2,48.6 45.5,51.4 	"/>
	<polygon class="st1" points="43,21.9 49.7,16 52.6,24.5 61.4,22.7 59.7,31.5 68.1,34.4 62.2,41.1 68.1,47.8 59.7,50.7 61.4,59.5 
		52.6,57.8 49.7,66.2 43,60.3 36.3,66.2 33.4,57.8 24.6,59.5 26.3,50.7 17.9,47.8 23.8,41.1 17.9,34.4 26.3,31.5 24.6,22.7 
		33.4,24.5 36.3,16 	"/>
	<circle class="st1" cx="43" cy="41.1" r="13.8"/>
</g>
</svg>
