<?xml version="1.0" encoding="utf-8"?>
<!-- Generator: Adobe Illustrator 24.0.3, SVG Export Plug-In . SVG Version: 6.00 Build 0)  -->
<svg version="1.1" id="Layer_1" xmlns="http://www.w3.org/2000/svg" xmlns:xlink="http://www.w3.org/1999/xlink" x="0px" y="0px"
	 viewBox="0 0 94 105" style="enable-background:new 0 0 94 105;" xml:space="preserve">
<style type="text/css">
	.st0{fill:#00A25D;}
	.st1{fill:#FFFFFF;stroke:#000000;stroke-width:1.5;stroke-miterlimit:10;}
	.st2{fill:none;stroke:#000000;stroke-width:1.5;stroke-miterlimit:10;}
	.st3{fill:none;stroke:#231F20;stroke-miterlimit:10;}
</style>
<rect x="6.3" y="6.7" class="st0" width="87.7" height="98.3"/>
<rect x="0.9" y="0.7" class="st1" width="84.2" height="94.8"/>
<path class="st2" d="M76,77.1"/>
<path class="st3" d="M796.5,118.8"/>
<path class="st1" d="M41.2,67c-3.6-0.2-6.6-1-9.1-2.2c-2.4-1.2-4.5-3-6.1-5.2l5.1-5.9c0.9,1.8,2.2,3.2,4,4.3
	c1.8,1.1,3.8,1.8,6.1,2.1V51c-2.8-0.6-5.1-1.2-7.1-1.9c-1.9-0.7-3.5-1.8-4.8-3.3c-1.3-1.5-1.9-3.5-1.9-6c0-3.2,1.2-5.9,3.7-8.1
	c2.4-2.2,5.8-3.5,10.2-3.9v-5.4h5.8v5.4c3.3,0.2,6.1,0.9,8.2,2.1c2.1,1.2,4.1,2.8,5.8,5l-5.1,5.7c-1.1-1.8-2.4-3.2-3.8-4.1
	c-1.4-0.9-3.1-1.5-5.1-1.7v9.4c2.7,0.6,5,1.2,6.9,2c1.9,0.8,3.5,1.9,4.8,3.4c1.3,1.5,1.9,3.6,1.9,6.1c0,3.2-1.3,5.8-3.8,7.8
	c-2.5,2-5.8,3.2-9.9,3.5v5.4h-5.8V67z M41.2,35c-1.5,0.2-2.6,0.7-3.4,1.4c-0.8,0.7-1.2,1.6-1.2,2.7c0,1,0.4,1.8,1.2,2.4
	c0.8,0.6,1.9,1.1,3.4,1.5V35z M51.4,56.1c0-1-0.4-1.8-1.1-2.4c-0.8-0.6-1.9-1.1-3.3-1.5v7.7C49.9,59.5,51.4,58.2,51.4,56.1z
	 M43,17.4c-16.9,0-30.7,13.7-30.7,30.7S26.1,78.8,43,78.8S73.7,65,73.7,48.1S59.9,17.4,43,17.4z"/>
</svg>
