<?xml version="1.0" encoding="utf-8"?>
<!-- Generator: Adobe Illustrator 24.0.3, SVG Export Plug-In . SVG Version: 6.00 Build 0)  -->
<svg version="1.1" id="Layer_1" xmlns="http://www.w3.org/2000/svg" xmlns:xlink="http://www.w3.org/1999/xlink" x="0px" y="0px"
	 viewBox="0 0 94 105" style="enable-background:new 0 0 94 105;" xml:space="preserve">
<style type="text/css">
	.st0{fill:#7F9B9E;}
	.st1{fill:#FFFFFF;}
	.st2{fill:#231F20;}
	.st3{fill:#FFFFFF;stroke:#231F20;stroke-width:1.5;stroke-miterlimit:10;}
	.st4{fill:none;stroke:#231F20;stroke-width:1.5;stroke-miterlimit:10;}
	.st5{fill:none;stroke:#231F20;stroke-miterlimit:10;}
	.st6{fill:#FFFFFF;stroke:#000000;stroke-width:1.5;stroke-miterlimit:10;}
</style>
<rect x="6.3" y="6.7" class="st0" width="87.7" height="98.3"/>
<g>
	<g>
		<rect x="0.8" y="0.8" class="st1" width="84.2" height="94.8"/>
		<path class="st2" d="M84.2,1.5v93.3H1.5V1.5H84.2 M85.7,0H0v96.3h85.7V0L85.7,0z"/>
	</g>
</g>
<g>
	<rect x="10.2" y="31.1" class="st3" width="66" height="45.4"/>
	<rect x="10.2" y="25.5" class="st3" width="66" height="5.6"/>
	<path class="st4" d="M76,77.1"/>
	<g>
		<line class="st4" x1="30.1" y1="28.3" x2="30.1" y2="20.4"/>
		<line class="st4" x1="43.2" y1="28.3" x2="43.2" y2="20.4"/>
		<line class="st4" x1="56.3" y1="28.3" x2="56.3" y2="20.4"/>
	</g>
</g>
<path class="st4" d="M48.9,52.4"/>
<path class="st5" d="M76.2,75.9"/>
<line class="st6" x1="17.6" y1="66.1" x2="69" y2="66.1"/>
<g>
	<circle class="st6" cx="43.3" cy="46.8" r="7.5"/>
	<path class="st6" d="M43.3,56.4c-4.9,0-11.8,2.8-11.8,9.7h23.7C55.1,59.2,48.2,56.4,43.3,56.4z"/>
</g>
</svg>
