<?xml version="1.0" encoding="utf-8"?>
<!-- Generator: Adobe Illustrator 24.0.3, SVG Export Plug-In . SVG Version: 6.00 Build 0)  -->
<svg version="1.1" id="Layer_1" xmlns="http://www.w3.org/2000/svg" xmlns:xlink="http://www.w3.org/1999/xlink" x="0px" y="0px"
	 viewBox="0 0 106.6 124" style="enable-background:new 0 0 106.6 124;" xml:space="preserve">
<g>
	<path d="M52.4,123c-2.1-5.4-4.2-10.8-6.3-16.2c1.8-0.7,3.6-1.4,5.5-2.1c1.4,3.6,2.8,7.2,4.2,10.7c14.3-5.6,28.6-11.2,42.9-16.8
		c-1.4-3.6-2.8-7.3-4.2-10.8c1.8-0.7,3.4-1.3,5.2-2c-2.1-5.3-4.2-10.7-6.3-16.1c1.9-0.7,3.6-1.4,5.5-2.1
		C94,54.9,89.2,42.4,84.3,29.8c-1.8,0.7-3.5,1.4-5.4,2.1c-0.7-1.9-1.5-3.7-2.2-5.6c-1.7,0.7-3.3,1.3-4.9,1.9
		c2.1,5.4,4.2,10.8,6.3,16.2c-1.9,0.7-3.7,1.5-5.6,2.2c-2.8-7.3-5.7-14.5-8.5-21.8c-3.5,1.4-7,2.7-10.5,4.1
		c2.1,5.4,4.3,10.9,6.4,16.4c-2,0.8-3.8,1.5-5.8,2.3c-2.8-7.1-5.6-14.3-8.3-21.3c-3.5,1.4-7.1,2.8-10.6,4.1
		c2.8,7.2,5.6,14.3,8.4,21.4c-2,0.8-3.9,1.5-5.9,2.3C31.3,37.9,25,21.8,18.7,5.6c-3.5,1.4-7,2.7-10.4,4.1
		C17.3,33,26.4,56.3,35.5,79.5c-0.3,0.1-0.6,0.2-0.8,0.3c-1.4,0.5-2.7,1.1-4.1,1.6c-0.2,0.1-0.3,0.2-0.6,0.4
		c-2.1-5.3-4.2-10.8-6.3-16.2c-1.8,0.7-3.5,1.4-5.3,2.1c-0.7-1.8-1.3-3.4-2-5.2c-3.5,1.4-7.1,2.8-10.6,4.1c-0.7-1.9-1.4-3.6-2.1-5.5
		c3.5-1.4,7.1-2.8,10.6-4.1c0.7,1.8,1.4,3.6,2.1,5.5c1.9-0.7,3.5-1.4,5.4-2.1C15.3,44.1,9,27.8,2.6,11.5c1.8-0.7,3.5-1.4,5.3-2.1
		C7.2,7.7,6.6,6,5.9,4.3C9.5,2.8,13.2,1.4,16.8,0c0.7,1.7,1.3,3.4,2,5.1c1.7-0.7,3.4-1.3,5.1-2c2.8,7.3,5.6,14.4,8.5,21.7
		c3.7-1.5,7.5-2.9,11.3-4.4c0.7,1.9,1.4,3.5,2.1,5.4c5.4-2.1,10.8-4.2,16.2-6.3c0.7,1.9,1.4,3.6,2.1,5.5c3.5-1.4,7.1-2.8,10.7-4.2
		c0.7,1.9,1.5,3.7,2.2,5.6c1.9-0.7,3.6-1.4,5.5-2.1c0.7,1.8,1.3,3.4,2,5.1c1.8-0.7,3.4-1.3,5.2-2c5,12.8,9.9,25.4,14.9,38.1
		c-1.7,0.7-3.3,1.3-5,2c0.1,0.3,0.2,0.5,0.3,0.7c1.9,4.8,3.8,9.8,5.7,14.6c0.3,0.8,0.3,0.8-0.5,1.2c-1.4,0.5-2.7,1.1-4.1,1.6
		c-0.2,0.1-0.4,0.1-0.7,0.3c2.1,5.4,4.2,10.7,6.3,16.1C88.4,108.9,70.4,115.9,52.4,123z"/>
	<path d="M26.7,89c-2,0.8-3.7,1.5-5.7,2.2c-1.3-3.4-2.7-6.8-4-10.3c-1.7,0.7-3.4,1.3-5.1,2c-0.7-1.8-1.4-3.5-2.1-5.3
		c-1.9,0.7-3.7,1.5-5.6,2.2C2.8,76.1,1.4,72.5,0,68.9c1.8-0.7,3.5-1.4,5.4-2.1c1.4,3.5,2.7,7,4.1,10.5c1.8-0.7,3.5-1.4,5.3-2.1
		c0.7,1.8,1.3,3.4,2,5.2c1.9-0.7,3.7-1.5,5.6-2.2C24,81.9,25.3,85.3,26.7,89z"/>
	<path d="M32.1,87.2c1.3,3.4,2.7,7,4.1,10.5c1.8-0.7,3.5-1.4,5.3-2.1c1.5,3.7,2.8,7.3,4.3,11c-1.8,0.7-3.5,1.4-5.4,2.1
		c-1.4-3.5-2.8-7.1-4.1-10.6c-1.7,0.7-3.4,1.3-5.1,2c-1.4-3.6-2.8-7.2-4.2-10.8C28.6,88.6,30.4,87.9,32.1,87.2z"/>
</g>
</svg>
