<?xml version="1.0" encoding="UTF-8"?>
<svg id="Layer_1" xmlns="http://www.w3.org/2000/svg" version="1.1" viewBox="0 0 3427.5 1049.9">
  <!-- Generator: Adobe Illustrator 29.1.0, SVG Export Plug-In . SVG Version: 2.1.0 Build 142)  -->
  <defs>
    <style>
      .st0 {
        fill: #fff;
      }
    </style>
  </defs>
  <g id="Layer_1-21">
    <path class="st0" d="M591.2,904.6h-236.5c-110.1,0-169.6-81.8-169.6-205.3v-349.6c0-123.5,26.8-211.2,185.9-211.2h61c113,0,162.1,87.8,162.1,212.7v68.4h-183v-111.6c0-10.4-7.4-19.3-17.8-19.3h-1.5c-10.4,0-19.3,8.9-19.3,19.3v419.5c0,11.9,10.4,19.3,19.3,19.3h199.3v157.7h0Z"/>
    <path class="st0" d="M848.5,736.5c0,11.9-8.9,20.8-20.8,20.8s-22.3-8.9-22.3-20.8v-425.4c0-11.9,8.9-20.8,20.8-20.8s22.3,8.9,22.3,20.8v425.4h0ZM870.8,140h-87.8c-110.1,0-163.6,53.6-163.6,162.1v446.2c0,110.1,53.5,162.1,163.6,162.1h87.8c110.1,0,163.6-53.6,163.6-162.1v-446.2c0-110.1-53.5-162.1-163.6-162.1"/>
    <polygon class="st0" points="1641.4 145.9 1641.4 904.6 1458.4 904.6 1458.4 560.9 1415.3 904.6 1291.8 904.6 1247.2 560.9 1247.2 904.6 1064.2 904.6 1065.7 145.9 1306.7 145.9 1352.8 489.5 1397.4 145.9 1641.4 145.9 1641.4 145.9"/>
    <path class="st0" d="M1895.7,450.9c0,11.9-8.9,20.8-19.3,20.8h-19.3v-180h19.3c10.4,0,19.3,8.9,19.3,20.8v138.3h0ZM1915.1,145.9h-242.5v758.6h185.9v-296h56.5c110.1,0,163.6-53.6,163.6-162.1v-138.3c0-110.1-53.5-162.1-163.6-162.1"/>
    <polygon class="st0" points="2104 145.9 2289.9 145.9 2289.9 746.9 2431.2 746.9 2431.2 904.6 2104 904.6 2104 145.9"/>
    <polygon class="st0" points="2461 145.9 2789.7 145.9 2789.7 303.6 2646.9 303.6 2646.9 441.9 2783.8 441.9 2783.8 599.6 2646.9 599.6 2646.9 748.4 2791.2 748.4 2791.2 904.6 2461 904.6 2461 145.9"/>
    <polygon class="st0" points="3173.5 632.3 3143.7 511.9 3241.9 145.9 3075.3 145.9 3035.1 337.8 3003.9 145.9 2810.5 145.9 2910.2 538.6 2809 904.6 2977.1 904.6 3017.3 709.7 3051.5 904.6 3243.4 904.6 3173.5 632.3"/>
  </g>
</svg>