<?xml version="1.0" encoding="utf-8"?>
<!-- Generator: Adobe Illustrator 24.0.3, SVG Export Plug-In . SVG Version: 6.00 Build 0)  -->
<svg version="1.1" id="Layer_1" xmlns="http://www.w3.org/2000/svg" xmlns:xlink="http://www.w3.org/1999/xlink" x="0px" y="0px"
	 viewBox="0 0 94 105" style="enable-background:new 0 0 94 105;" xml:space="preserve">
<style type="text/css">
	.st0{fill:#164098;}
	.st1{fill:#FFFFFF;stroke:#000000;stroke-width:1.5;stroke-miterlimit:10;}
	.st1:hover{stroke:red;}
	.st2{fill:none;stroke:#000000;stroke-width:1.5;stroke-miterlimit:10;}
	.st2:hover{stroke:red;}
</style>
<rect x="6.3" y="6.7" class="st0" width="87.7" height="98.3"/>
<rect x="0.9" y="0.7" class="st1" width="84.2" height="94.8"/>
<path class="st2" d="M76,77.1"/>
<g>
	<rect x="10" y="29.8" class="st1" width="66" height="45.4"/>
	<g>
		<g>
			<rect x="10" y="24.2" class="st1" width="66" height="5.6"/>
			<g>
				<line class="st2" x1="29.9" y1="27" x2="29.9" y2="19.1"/>
				<line class="st2" x1="43" y1="27" x2="43" y2="19.1"/>
				<line class="st2" x1="56.1" y1="27" x2="56.1" y2="19.1"/>
			</g>
		</g>
		<g>
			<path class="st1" d="M60.8,51.2l-1.4-5.8l-5,0.6c-0.5-0.8-1-1.5-1.6-2.2l2.1-4.5l-5.1-3.1l-3.1,4C45.8,40,45,39.8,44,39.8
				l-1.7-4.7l-5.8,1.4l0.6,5c-0.8,0.5-1.5,1-2.2,1.6L30.4,41l-3.1,5.1l4,3.1c-0.2,0.9-0.4,1.7-0.4,2.7l-4.7,1.7l1.4,5.8l5-0.6
				c0.5,0.8,1,1.5,1.6,2.2l-2.1,4.5l5.1,3.1l3.1-4C41.2,64.8,42,65,43,65l1.7,4.7l5.8-1.4l-0.6-5c0.8-0.5,1.5-1,2.2-1.6l4.5,2.1
				l3.1-5.1l-4-3.1c0.2-0.9,0.4-1.7,0.4-2.7L60.8,51.2z"/>
			<g>
				<circle class="st1" cx="43.5" cy="52.3" r="7.9"/>
			</g>
		</g>
	</g>
</g>
</svg>
