<?xml version="1.0" encoding="utf-8"?>
<!-- Generator: Adobe Illustrator 25.0.1, SVG Export Plug-In . SVG Version: 6.00 Build 0)  -->
<svg version="1.1" id="Layer_1" xmlns="http://www.w3.org/2000/svg" xmlns:xlink="http://www.w3.org/1999/xlink" x="0px" y="0px"
	 viewBox="0 0 100 100" style="enable-background:new 0 0 100 100;" xml:space="preserve">
<style type="text/css">
	.st0{display:none;}
	.st1{display:inline;}
	.st2{fill:#FFFFFF;}
	.st3{display:inline;enable-background:new    ;}
	.st4{fill:#FFFFFF;stroke:#000000;stroke-width:0.6;stroke-miterlimit:10;}
	.st5{fill:none;stroke:#000000;stroke-width:0.8553;stroke-miterlimit:10;}
	.st6{fill:none;stroke:#000000;stroke-width:0.5649;stroke-miterlimit:10;}
</style>
<g id="Layer_1_1_" class="st0">
	<g class="st1">
		<g>
			<polygon class="st2" points="50,76.2 39.2,97.3 38.6,73.6 19.8,87.9 29.5,66.3 6.3,71 24.5,55.8 1.5,50 24.5,44.2 6.3,29 
				29.5,33.7 19.8,12.1 38.6,26.4 39.2,2.7 50,23.8 60.8,2.7 61.4,26.4 80.2,12.1 70.5,33.7 93.7,29 75.5,44.2 98.5,50 75.5,55.8 
				93.7,71 70.5,66.3 80.2,87.9 61.4,73.6 60.8,97.3 			"/>
			<path d="M60.4,4.2L61,25.7v1.5l1.2-0.9l17.1-13l-8.8,19.6l-0.6,1.3l1.4-0.3l21-4.3L75.8,43.4l-1.1,0.9l1.4,0.4L97,50l-20.8,5.3
				l-1.4,0.4l1.1,0.9l16.5,13.8l-21-4.3L70,65.8l0.6,1.3l8.8,19.6l-17.1-13L61,72.8v1.5l-0.5,21.5l-9.8-19.1L50,75.4l-0.7,1.3
				l-9.8,19.1L39,74.3v-1.5l-1.2,0.9l-17.1,13l8.8-19.6l0.6-1.3l-1.4,0.3l-21,4.3l16.5-13.8l1.1-0.9l-1.4-0.4L3,50l20.8-5.3l1.4-0.4
				l-1.1-0.9L7.7,29.6l21,4.3l1.4,0.3l-0.6-1.3l-8.8-19.6l17.1,13l1.2,0.9v-1.5l0.5-21.5l9.8,19.1l0.7,1.3l0.7-1.3L60.4,4.2
				 M61.1,1.3L50,23L38.9,1.3l-0.6,24.4L18.8,10.9l10.1,22.3L5,28.3L23.7,44L0,50l23.7,6L5,71.7l23.9-4.9L18.8,89.1l19.5-14.8
				l0.6,24.4L50,77l11.1,21.7l0.6-24.4l19.5,14.8L71.1,66.8L95,71.7L76.3,56l23.7-6l-23.7-6L95,28.3l-23.9,4.9l10.1-22.3L61.7,25.7
				L61.1,1.3L61.1,1.3z"/>
		</g>
	</g>
	<g class="st3">
		<path d="M119.4,54.9c0.5,0,0.9-0.1,1-0.3s0.2-0.5,0.2-0.8V47c-0.4-0.5-0.7-0.8-0.8-0.9c-0.1-0.1-0.2-0.1-0.4-0.2v-0.4h3l4.9,6h0.1
			v-4.2c0-0.5-0.1-0.8-0.3-1c-0.2-0.2-0.5-0.3-1.1-0.4v-0.4h3.1v0.4c-0.4,0.1-0.8,0.2-0.9,0.3c-0.2,0.1-0.2,0.4-0.2,0.8v8.5h-0.4
			l-6.3-7.7h-0.1v5.6c0,0.4,0.1,0.8,0.2,0.9c0.2,0.3,0.6,0.5,1.2,0.5v0.4h-3.3L119.4,54.9L119.4,54.9z"/>
		<path d="M129.8,55.3v-0.4c0.4,0,0.7-0.1,0.9-0.2c0.3-0.1,0.4-0.4,0.4-0.8v-7c0-0.4-0.1-0.7-0.4-0.8c-0.2-0.1-0.4-0.1-0.9-0.2v-0.4
			h8.3v2.9h-0.4c-0.2-0.9-0.5-1.6-0.9-1.9c-0.4-0.3-1.2-0.5-2.4-0.5c-0.4,0-0.7,0-0.8,0.1s-0.2,0.3-0.2,0.5v3.5
			c0.8,0,1.4-0.1,1.7-0.4c0.3-0.3,0.5-0.9,0.7-1.7h0.4v4.9h-0.4c-0.1-0.8-0.3-1.4-0.6-1.7s-0.9-0.5-1.7-0.5v3.5
			c0,0.3,0.1,0.5,0.2,0.6s0.5,0.2,1,0.2c0.9,0,1.7-0.2,2.2-0.5s1.1-1,1.5-2h0.4l-0.6,3h-8.4V55.3z"/>
		<path d="M143.6,45.6V46c-0.3,0-0.6,0.1-0.7,0.1s-0.2,0.2-0.2,0.5c0,0.1,0,0.1,0,0.2c0,0.1,0,0.2,0.1,0.3l1.8,5l0,0l1.6-4.2
			c0,0-0.1-0.2-0.2-0.6c-0.1-0.4-0.2-0.7-0.3-0.7c-0.1-0.2-0.2-0.3-0.4-0.4c-0.1-0.1-0.4-0.1-0.7-0.1v-0.4h4.5v0.4
			c-0.4,0-0.7,0.1-0.8,0.1c-0.1,0.1-0.2,0.2-0.2,0.4c0,0,0,0.1,0,0.3s0.1,0.3,0.2,0.6l1.6,4.6l0,0l1.6-4.7c0-0.1,0.1-0.2,0.1-0.3
			s0-0.2,0-0.3c0-0.3-0.1-0.4-0.3-0.5c-0.1-0.1-0.4-0.1-0.7-0.1v-0.4h2.6v0.4c-0.2,0-0.4,0.1-0.5,0.2c-0.2,0.1-0.4,0.4-0.5,0.8
			l-2.9,8.7h-0.4l-2.4-6.7h-0.1l-2.6,6.7h-0.4l-3-8.7c-0.1-0.4-0.3-0.6-0.4-0.7c-0.1-0.1-0.3-0.2-0.6-0.2v-0.4h4.2L143.6,45.6
			L143.6,45.6z"/>
		<path d="M155,45.7c0.2-0.2,0.5-0.3,0.9-0.3c0.3,0,0.6,0.1,0.8,0.3s0.4,0.6,0.4,1.1c0,0.2,0,0.4-0.1,0.7s-0.2,0.8-0.4,1.6
			c-0.1,0.4-0.2,0.8-0.2,1.1s-0.1,0.9-0.2,1.8h-0.4c-0.1-1.1-0.2-1.8-0.3-2.1s-0.1-0.6-0.3-1.1c-0.2-0.6-0.3-1-0.3-1.2
			c-0.1-0.3-0.1-0.6-0.1-0.7C154.6,46.3,154.7,45.9,155,45.7z M155,53.4c0.2-0.2,0.5-0.4,0.9-0.4s0.6,0.1,0.9,0.4s0.4,0.5,0.4,0.9
			s-0.3,0.6-0.5,0.8s-0.5,0.4-0.9,0.4s-0.6-0.1-0.9-0.4c-0.2-0.2-0.4-0.5-0.4-0.9S154.7,53.6,155,53.4z"/>
	</g>
</g>
<g id="Layer_2_1_">
	<path class="st4" d="M39.4,2.9c-0.1,7.8-0.2,23.5-0.2,23.5l-19.7-15l9.7,22.5c0,0-15.6-2.1-23-4.8c6,5,18.1,15,18.1,15
		S9.5,47.7,2.1,49.8c7.1,1.6,21.3,4.8,21.3,4.8l-19,16.6l16.4-1.6l8.6-2.5L17.8,92.7l21.7-18.2c0,0-0.5,15.2-0.1,22.7
		C43,90.5,50.2,77,50.2,77s7.4,13.6,12.1,19.8c-0.2-7.4-0.7-22.3-0.7-22.3l20,13.4L70.2,66.2c0,0,15.9,3.5,23.9,4.7
		c-6.2-5-12.3-10-18.5-15c7.5-1.9,15-3.8,22.4-5.7c-7.3-2.4-14.7-4.5-22.2-6.3c6.6-4.6,18.6-15.2,18.6-15.2l-24.8,4.4l12.7-22.6
		c0,0-14.2,10.8-21.4,16.2c-0.2-7.8-0.3-15.7-0.5-23.5c-2.9,6.4-10,20.6-10,20.6s-7.1-12-8.6-15.3C41.1,6.7,40.2,4.8,39.4,2.9z"/>
</g>
<path class="st5" d="M35.9,41.9c-1.1-0.3-2.3-0.6-3.4-0.5c-1.1,0.1-2.3,0.6-3.1,1.7s-1.1,2.9-0.6,4.2c0.4,1,1.2,1.6,2,2.2
	c0.9,0.6,1.8,1.3,2.6,1.9c1.2,0.9,2.5,2,2.6,3.8c0.1,1.6-0.8,2.9-1.7,3.9c-1.2,1.2-2.6,2.1-4,2c-1.5-0.1-2.9-1.7-3-3.6"/>
<path class="st5" d="M37.3,53.2c0.2,1.3,0.7,2.5,1.5,3.3c0.5,0.4,1,0.6,1.6,0.8c1.1,0.3,2.3,0.3,3.3-0.4c1-0.7,1.7-2.1,2.1-3.5
	c0.4-1.5,0.4-3,0.4-4.5c0-1.2,0-2.4-0.3-3.5c-0.8-3.4-4.6-4.8-6.7-2.6C37.2,44.9,36.7,50.1,37.3,53.2z"/>
<path class="st5" d="M49.9,55.6c0.6,1.1,1.4,2.1,2.3,2.3c1.6,0.4,3.1-1.1,4.2-2.7c0.6-0.8,1.1-1.6,1.4-2.6c0.4-1.2,0.4-2.6,0.3-3.9
	c-0.1-4-4-8.6-7.1-6.5C47.3,44.9,47.7,51.7,49.9,55.6z"/>
<path class="st5" d="M59.6,59.4l1.3-17.2l4.6,16.3c0,0,1.9-10.5,2-15.9"/>
<path class="st6" d="M73.3,35c0,6.3-1.5,12.6-1.5,18.8"/>
<path class="st6" d="M72.2,60.4c-0.3,0.1-0.6,0.1-1,0c-0.3-0.1-0.6-0.3-0.8-0.6c-0.1-0.3-0.1-0.6-0.1-0.9c0-0.4,0.1-0.8,0.2-1.1
	s0.5-0.5,0.8-0.4c0.2,0.1,0.3,0.2,0.5,0.4c0.3,0.3,0.5,0.7,0.6,1.1s-0.1,0.9-0.4,1.1c-0.3,0.1-0.7-0.1-0.8-0.4S71,58.9,71,58.5
	c0-0.1,0-0.2,0-0.3c0.2-0.3,0.7,0.1,1-0.1"/>
</svg>
