<?xml version="1.0" encoding="utf-8"?>
<!-- Generator: Adobe Illustrator 24.0.3, SVG Export Plug-In . SVG Version: 6.00 Build 0)  -->
<svg version="1.1" id="Layer_1" xmlns="http://www.w3.org/2000/svg" xmlns:xlink="http://www.w3.org/1999/xlink" x="0px" y="0px"
	 viewBox="0 0 100 100" style="enable-background:new 0 0 100 100;" xml:space="preserve">
<style type="text/css">
	.st0{fill:#FFFFFF;}
	.st1{font-family:'UntitledSans-Regular';}
	.st2{font-size:14.373px;}
</style>
<g>
	<g>
		<polygon class="st0" points="50,76.2 39.2,97.3 38.6,73.6 19.8,87.9 29.5,66.3 6.3,71 24.5,55.8 1.5,50 24.5,44.2 6.3,29 
			29.5,33.7 19.8,12.1 38.6,26.4 39.2,2.7 50,23.8 60.8,2.7 61.4,26.4 80.2,12.1 70.5,33.7 93.7,29 75.5,44.2 98.5,50 75.5,55.8 
			93.7,71 70.5,66.3 80.2,87.9 61.4,73.6 60.8,97.3 		"/>
		<path d="M60.4,4.2L61,25.7v1.5l1.2-0.9l17.1-13l-8.8,19.6l-0.6,1.3l1.4-0.3l21-4.3L75.8,43.4l-1.1,0.9l1.4,0.4L97,50l-20.8,5.3
			l-1.4,0.4l1.1,0.9l16.5,13.8l-21-4.3L70,65.8l0.6,1.3l8.8,19.6l-17.1-13L61,72.8v1.5l-0.5,21.5l-9.8-19.1L50,75.4l-0.7,1.3
			l-9.8,19.1L39,74.3v-1.5l-1.2,0.9l-17.1,13l8.8-19.6l0.6-1.3l-1.4,0.3l-21,4.3l16.5-13.8l1.1-0.9l-1.4-0.4L3,50l20.8-5.3l1.4-0.4
			l-1.1-0.9L7.7,29.6l21,4.3l1.4,0.3l-0.6-1.3l-8.8-19.6l17.1,13l1.2,0.9v-1.5l0.5-21.5l9.8,19.1l0.7,1.3l0.7-1.3L60.4,4.2
			 M61.1,1.3L50,23L38.9,1.3l-0.6,24.4L18.8,10.9l10.1,22.3L5,28.3L23.7,44L0,50l23.7,6L5,71.7l23.9-4.9L18.8,89.1l19.5-14.8
			l0.6,24.4L50,77l11.1,21.7l0.6-24.4l19.5,14.8L71.1,66.8L95,71.7L76.3,56l23.7-6l-23.7-6L95,28.3l-23.9,4.9l10.1-22.3L61.7,25.7
			L61.1,1.3L61.1,1.3z"/>
	</g>
</g>
<text transform="matrix(1 0 0 1 31.0445 55.1777)" class="st1 st2">NEW!</text>
</svg>
