<?xml version="1.0" encoding="utf-8"?>
<!-- Generator: Adobe Illustrator 24.0.3, SVG Export Plug-In . SVG Version: 6.00 Build 0)  -->
<svg version="1.1" id="Layer_1" xmlns="http://www.w3.org/2000/svg" xmlns:xlink="http://www.w3.org/1999/xlink" x="0px" y="0px"
	 viewBox="0 0 61.3 57.9" style="enable-background:new 0 0 61.3 57.9;" xml:space="preserve">
<style type="text/css">
	.st0{fill:none;stroke:#FFFFFF;stroke-miterlimit:10;}
</style>
<g id="Layer_1_1_">
</g>
<path class="st0" d="M5.9,54.2c16.5,0.5,33,0.2,49.6,0.7C55.1,39,55.1,23.1,55.7,7.2c-6.4,0.1-12.8,0.2-19.2,0.3
	c-5.3,0.1-10.3-0.9-15.4-0.8c-3.3,0.1-11.6-1.3-14.2,1c-2.7,2.4-1.3,9.1-1.3,12.2C5.5,22.7,5.7,54.2,5.9,54.2z"/>
<path class="st0" d="M27.4,10.5c2.6,13.2,4.4,26.6,5.3,40"/>
<path class="st0" d="M34.5,17.1c4.6,0,9.2,0,13.8,0"/>
<path class="st0" d="M37.5,25c2.5,0.1,5,0.3,7.5,0.4"/>
<path class="st0" d="M39.6,33c2.5-0.2,5-0.1,7.5,0.3"/>
<path class="st0" d="M40.8,40.9c1.3-0.2,2.6-0.1,3.8,0.3"/>
<path class="st0" d="M39.1,48.6c2.1,0.2,4.2,0.3,6.3,0.5"/>
<path class="st0" d="M19.6,19c-2.6-0.3-5.3-0.4-7.9-0.2"/>
<path class="st0" d="M23.7,25.9c-3.4,0-6.7,0.4-10,1"/>
<path class="st0" d="M24.1,33.5c-3.1,0.2-6.1,0.4-9.2,0.6"/>
<path class="st0" d="M21.2,40.4c-3.8,0.3-7.6,0.8-11.2,1.7"/>
<path class="st0" d="M21.2,47.5c-3.6,0.3-7.2,0.6-10.8,0.9"/>
</svg>
