<?xml version="1.0" encoding="utf-8"?>
<!-- Generator: Adobe Illustrator 24.0.3, SVG Export Plug-In . SVG Version: 6.00 Build 0)  -->
<svg version="1.1" id="Layer_1" xmlns="http://www.w3.org/2000/svg" xmlns:xlink="http://www.w3.org/1999/xlink" x="0px" y="0px"
	 viewBox="0 0 49.6 57.9" style="enable-background:new 0 0 49.6 57.9;" xml:space="preserve">
<style type="text/css">
	.st0{fill:none;stroke:#FFFFFF;stroke-miterlimit:10;}
</style>
<g id="Layer_1_1_">
</g>
<g id="Layer_2_1_">
	<path class="st0" d="M11.2,52.5C11,41.1,10.9,29.8,11,18.4c9.4-0.2,19.2-0.4,28.6-0.2c0.4,11,0.8,22.1,1.2,33.1
		C31.7,52,20.2,52.4,11.2,52.5z"/>
	<path class="st0" d="M21,51c-0.3-4.8-0.3-9.7-0.1-14.6c2.9,0.1,5.7,0,8.6-0.1c0.3,4.7,0.3,9.3,0,14"/>
	<path class="st0" d="M26.6,43.3c-0.3,0.1-0.7,0.2-1,0.4s-0.4,0.6-0.3,1c0.1,0.3,0.4,0.4,0.7,0.4c0.4,0.1,0.9,0,1.2-0.3
		s0.4-0.9,0.1-1.2c-0.3-0.3-0.9-0.3-1.1,0.1"/>
	<path class="st0" d="M5.5,23.9c5.4-6.4,11.1-13,19-15.8c1.9,2,4.4,3.1,6.8,4.4c4.3,2.3,8.3,5.1,11.9,8.4"/>
	<path class="st0" d="M34.4,13.8c0-2.1,0-4.3,0-6.4c1.4-0.2,2.8-0.3,4.3-0.2c-0.2,2.9-0.4,5.7-0.6,8.6"/>
</g>
</svg>
