<?xml version="1.0" encoding="utf-8"?>
<!-- Generator: Adobe Illustrator 22.0.1, SVG Export Plug-In . SVG Version: 6.00 Build 0)  -->
<svg version="1.1" id="Layer_2" xmlns="http://www.w3.org/2000/svg" xmlns:xlink="http://www.w3.org/1999/xlink" x="0px" y="0px"
	 viewBox="0 0 136.1 178" style="enable-background:new 0 0 136.1 178;" xml:space="preserve">
<style type="text/css">
	.st0{fill:#EB2227;}
	.st1{fill:none;stroke:#FFFFFF;stroke-width:0.6973;stroke-miterlimit:10;}
</style>
<g>
	<g>
		<path class="st0" d="M36.8,173.4c-4.5,0-8.2-4.4-8.2-9.8c0-5.2,7.4-25.8,7.8-26.7l0.5-1.3l0.5,1.3c0.3,0.9,7.8,21.5,7.8,26.7
			C45,169,41.3,173.4,36.8,173.4z"/>
		<path d="M36.8,137.1c0,0,7.7,21.3,7.7,26.5c0,5.2-3.5,9.3-7.7,9.3s-7.7-4.2-7.7-9.3C29.1,158.4,36.8,137.1,36.8,137.1 M36.8,134.2
			l-0.9,2.6c-0.3,0.9-7.8,21.5-7.8,26.8c0,5.7,3.9,10.3,8.7,10.3s8.7-4.6,8.7-10.3c0-5.3-7.5-25.9-7.8-26.8L36.8,134.2L36.8,134.2z"
			/>
	</g>
	<path class="st1" d="M35.1,148.4c0,0-4.5,13.5-3.6,16.2"/>
</g>
<g>
	<path class="st0" d="M12,78.6l14.4-67.9h24.8c6.3,0,10.9,1.7,13.6,5.1c3.7,4.6,3.3,11.1,2.3,15.8c-2.9,13.8-11.8,20.8-26.3,20.8
		h-6.5l-5.6,26.1H12z M40.7,39.8c5,0,7.9-2.6,9.1-8c0.7-3.2,0.5-5.4-0.6-6.7c-1-1.2-2.6-1.7-5-1.7h-3.6L37,39.8H40.7z"/>
	<path d="M51.2,11.2c16.6,0,17.2,12,15.4,20.3c-2.5,12-10.1,20.4-25.8,20.4h-6.9l-5.6,26.1H12.6l14.2-66.9H51.2 M36.4,40.3h4.3
		c6.3,0,8.6-3.9,9.6-8.4c1.1-5.2,0.2-9.1-6.1-9.1h-4L36.4,40.3 M51.2,10.2H26.8H26l-0.2,0.8L11.6,77.8l-0.3,1.2h1.2h15.7h0.8
		l0.2-0.8l5.4-25.3h6.1c14.8,0,23.8-7.1,26.8-21.2c1-4.8,1.4-11.5-2.4-16.2C62.4,11.9,57.6,10.2,51.2,10.2L51.2,10.2z M40.9,23.8
		h3.2c2.2,0,3.8,0.5,4.6,1.6c1,1.2,1.2,3.3,0.5,6.3c-1.1,5.3-3.8,7.6-8.6,7.6h-3.1L40.9,23.8L40.9,23.8z"/>
</g>
<g>
	<polygon class="st0" points="91.8,93.3 97.9,64.7 86.4,64.7 80.3,93.3 63.5,93.3 78,25.4 94.7,25.4 89.4,50.4 100.9,50.4 
		106.3,25.4 123,25.4 108.6,93.3 	"/>
	<path d="M122.4,25.9l-14.2,66.9H92.4l6.1-28.6H86l-6.1,28.6H64.2l14.2-66.9h15.7l-5.3,25h12.6l5.3-25H122.4 M123.6,24.9h-1.2h-15.7
		h-0.8l-0.2,0.8l-5.1,24.2H90l5.1-23.8l0.3-1.2h-1.2H78.4h-0.8l-0.2,0.8L63.2,92.6l-0.3,1.2h1.2h15.7h0.8l0.2-0.8l5.9-27.8h10.5
		l-5.8,27.4l-0.3,1.2h1.2h15.7h0.8l0.2-0.8l14.2-66.9L123.6,24.9L123.6,24.9z"/>
</g>
<g>
	<polygon class="st0" points="28.8,129.1 31.7,115.1 15.6,115.1 18.4,101.3 34.7,101.3 43.2,61.2 59.9,61.2 51.4,101.3 66.9,101.3 
		64.2,115.1 48.5,115.1 45.5,129.1 	"/>
	<path d="M59.3,61.7l-8.5,40.1h15.5l-2.5,12.8H48.1l-3,14l-15.7,0l3-14H16.2l2.5-12.8h16.3l8.5-40.1H59.3 M60.5,60.7h-1.2H43.6h-0.8
		l-0.2,0.8l-8.3,39.3H18.8h-0.8l-0.2,0.8l-2.5,12.8l-0.2,1.2h1.2h14.9l-2.7,12.8l-0.3,1.2l1.2,0l15.7,0l0.8,0l0.2-0.8l2.8-13.2h14.9
		h0.8l0.2-0.8l2.5-12.8l0.2-1.2h-1.2H52l8.3-38.9L60.5,60.7L60.5,60.7z"/>
</g>
<line class="st1" x1="28.3" y1="14.3" x2="15.7" y2="73.3"/>
<line class="st1" x1="34.1" y1="117.1" x2="32.2" y2="126.4"/>
<line class="st1" x1="20.2" y1="103.9" x2="18.5" y2="111.9"/>
<line class="st1" x1="44.9" y1="64.9" x2="37.8" y2="98.4"/>
<line class="st1" x1="79.8" y1="29.1" x2="67.3" y2="88.2"/>
<line class="st1" x1="99.9" y1="67.5" x2="95.2" y2="89.4"/>
<line class="st1" x1="107.8" y1="29" x2="104" y2="46.6"/>
<path class="st1" d="M52.3,26c0.4,1.4,0.6,3.5,0,6.2c-0.8,3.9-2.6,6.4-4.2,7.8"/>
</svg>
