<?xml version="1.0" encoding="utf-8"?>
<!-- Generator: Adobe Illustrator 25.4.1, SVG Export Plug-In . SVG Version: 6.00 Build 0)  -->
<svg version="1.1" id="Layer_1" xmlns="http://www.w3.org/2000/svg" xmlns:xlink="http://www.w3.org/1999/xlink" x="0px" y="0px"
	 viewBox="0 0 535.5 542.6" style="enable-background:new 0 0 535.5 542.6;" xml:space="preserve">
<style type="text/css">
	.st0{fill:none;stroke:#000000;stroke-width:4.2951;stroke-miterlimit:10;}
</style>
<g>
	<path d="M232.7,182.1v-5c0-15.8-0.7-26.5-2.2-32c-1.4-5.5-4.8-8.4-10.1-8.6c-5.3-0.2-14.6,2.5-28.1,8.3l-6.5-14.4l53.3-23
		l38.1-18.7l8.6,8.6v311.6c0,16.3,1.7,28.2,5,35.6c3.4,7.4,10.2,12.6,20.5,15.5s26.5,4.3,48.6,4.3v16.6H275h-35.3H183v-16.6
		c14.9,0,25.7-1.4,32.4-4.3s11.3-8,13.7-15.5c2.4-7.4,3.6-19.3,3.6-35.6V182.1z M395.3,161.3c-8.2,0-14.5-1.4-19.1-4.3
		c-4.6-2.9-8.3-7.2-11.2-13c-2.4-4.3-4.7-7.3-6.8-9c-2.2-1.7-4.9-2.5-8.3-2.5c-10.1,0-19.8,5-29.1,15.1c-9.4,10.1-21,26.6-34.9,49.7
		v-36.7h2.2c11.5-20.6,24.7-37.8,39.6-51.5s32.4-20.5,52.5-20.5c13.9,0,25.3,3.5,34.2,10.4c8.9,7,13.3,16.2,13.3,27.7
		c0,10.1-2.9,18.3-8.6,24.8C413.3,158,405.4,161.3,395.3,161.3z"/>
	<line class="st0" x1="12.4" y1="15.9" x2="523.1" y2="526.7"/>
	<line class="st0" x1="12.4" y1="526.7" x2="523.1" y2="15.9"/>
</g>
</svg>
