<?xml version="1.0" encoding="utf-8"?>
<!-- Generator: Adobe Illustrator 23.0.1, SVG Export Plug-In . SVG Version: 6.00 Build 0)  -->
<svg version="1.1" xmlns="http://www.w3.org/2000/svg" xmlns:xlink="http://www.w3.org/1999/xlink" x="0px" y="0px"
	 viewBox="0 0 2400 1359.8" style="enable-background:new 0 0 2400 1359.8;" xml:space="preserve">
<style type="text/css">
	.st0{fill:#DEDEDE;}
	.st1{fill:#FFFFFF;}
	.st2{fill:#F15A29;}
	.st3{clip-path:url(#SVGID_2_);}
	.st4{fill:#4E6B9E;}
	.st5{fill:#489E73;}
	.st6{fill:#FAA400;}
	.st7{clip-path:url(#SVGID_10_);}
</style>
<g id="blk">
</g>
<g id="Layer_1">
</g>
<g id="Layer_3">
	<g>
		<g>
			<g>
				<path d="M199.3,362l-63.8-242.2h-2.3V362H45.1V17.5h148.6L246.2,234h1.7l50.3-216.5h145.2V362h-96V119.7h-2.3L281.2,362H199.3z"
					/>
				<path d="M705.4,17.5L847.2,362H745l-26.5-66.7h-139L552.9,362h-96.6L598.1,17.5H705.4z M607.2,225.8h83.6l-40.7-101.7h-2.3
					L607.2,225.8z"/>
				<path d="M955.7,362h-95.5V17.5h156.5c93.2,0,147.4,42.1,147.4,118.1c0,76.6-54.2,118.7-147.4,118.7h-61V362z M1012.2,179.9
					c42.9,0,59.3-14.8,59.3-43.7c0-29-16.4-44.3-59.3-44.3h-56.5v88H1012.2z"/>
				<path d="M1276.5,362h-95.5V17.5h156.5c93.2,0,147.4,42.1,147.4,118.1c0,76.6-54.2,118.7-147.4,118.7h-61V362z M1333,179.9
					c42.9,0,59.3-14.8,59.3-43.7c0-29-16.4-44.3-59.3-44.3h-56.5v88H1333z"/>
				<path d="M1597.9,17.5V362h-96V17.5H1597.9z"/>
				<path d="M1868.5,208.3V17.5h88.1V362h-76.8l-153.6-204v204H1638V17.5h91.5L1868.5,208.3z"/>
				<path d="M1980.9,189.7c0-106.1,80.8-178.8,183.6-178.8c104.5,0,165.5,55.2,173.4,141.1l-93.2,3.3c-5.1-37.7-32.2-61.8-78-61.8
					c-55.9,0-87,37.7-87,96.2c0,60.1,32.8,100.1,94.3,100.1c31.1,0,61.6-12.6,75.7-39.9h-78.5v-66.7h169.5V362h-83.6v-38.3
					c-19.8,31.7-57.6,44.8-103.4,44.8C2055.4,368.5,1980.9,296.3,1980.9,189.7z"/>
			</g>
		</g>
		<g>
			<path d="M251.6,448.3c150.3,0,230.6,92.7,239.9,211.1l-127,4.5c-7.8-52.8-37.4-101.8-113.7-101.8c-72.4,0-114.5,52-114.5,132.7
				c0,80.7,42.1,132.7,114.5,132.7c76.3,0,105.9-49,113.7-101.8l127,5.3c-9.3,118.4-89.6,210.4-239.9,210.4
				C108.3,941.4,0,841.1,0,694.9C0,548.6,108.3,448.3,251.6,448.3z"/>
			<path d="M756.4,941.4c-142.6,0-254.7-100.3-254.7-246.6c0-146.3,112.2-246.6,254.7-246.6c142.6,0,254.7,100.3,254.7,246.6
				C1011.1,841.1,898.9,941.4,756.4,941.4z M756.4,561.4c-72.4,0-118.4,52.8-118.4,133.5c0,80.7,46,133.5,118.4,133.5
				c72.4,0,118.4-52.8,118.4-133.5C874.8,614.2,828.8,561.4,756.4,561.4z"/>
			<path d="M1177,457.3v369.5h243v105.6h-375.5V457.3H1177z"/>
			<path d="M1667,941.4c-142.6,0-254.7-100.3-254.7-246.6c0-146.3,112.2-246.6,254.7-246.6c142.6,0,254.7,100.3,254.7,246.6
				C1921.7,841.1,1809.5,941.4,1667,941.4z M1667,561.4c-72.4,0-118.4,52.8-118.4,133.5c0,80.7,46,133.5,118.4,133.5
				c72.4,0,118.4-52.8,118.4-133.5C1785.4,614.2,1739.4,561.4,1667,561.4z"/>
			<path d="M2266,932.4c-10.1-12.8-16.4-42.2-20.3-91.2c-3.9-54.3-28-66.4-72.4-66.4h-88v157.6h-130.1V457.3h247.7
				c127,0,190.1,58.1,190.1,150.8c0,69.4-44.4,114.6-104.4,122.2c50.6,9.8,80.2,37.7,85.7,92.7c7,70.9,9.3,92,25.7,109.3H2266z
				 M2179.6,676c56.1,0,84.1-13.6,84.1-57.3c0-38.5-28-58.8-84.1-58.8h-94.3V676H2179.6z"/>
		</g>
		<g>
			<g>
				<path d="M125.7,1053.6v287.6H45.5v-287.6H125.7z"/>
				<path d="M351.5,1212.9v-159.3h73.6v287.6H361l-128.3-170.3v170.3h-73.6v-287.6h76.4L351.5,1212.9z"/>
				<path d="M531.7,1341.2v-287.6h80.2v110.9h118.4v-110.9h80.2v287.6h-80.2v-113.7H611.8v113.7H531.7z"/>
				<path d="M924,1053.6v287.6h-80.2v-287.6H924z"/>
				<path d="M1017.8,1237.1c2.8,36.1,31.6,48.4,64.6,48.4c27.8,0,45.7-9.6,45.7-25.6c0-16.9-17.4-19.6-40.1-23.7l-54.2-9.1
					c-48.6-8.7-82.5-35.1-82.5-85.4c0-58.4,47.2-93.6,121.2-93.6c82,0,126.4,38.8,127.8,102.7l-73.6,1.4
					c-2.4-29.7-24.5-43.4-55.2-43.4c-26.4,0-41.5,10-41.5,26c0,13.2,11.3,18.3,29.7,21.5l56.1,9.6c62.2,10.5,90.5,42,90.5,89
					c0,61.2-54.7,91.7-124,91.7c-80.6,0-138.2-37.9-138.2-107.3L1017.8,1237.1z"/>
				<path d="M1308.3,1341.2v-223.7h-101.9v-63.9h284.8v63.9H1388v223.7H1308.3z"/>
				<path d="M1640.7,1346.6c-86.3,0-154.2-60.7-154.2-149.3s67.9-149.3,154.2-149.3c86.3,0,154.2,60.7,154.2,149.3
					S1727,1346.6,1640.7,1346.6z M1640.7,1116.6c-43.9,0-71.7,32-71.7,80.8c0,48.8,27.8,80.8,71.7,80.8c43.9,0,71.7-32,71.7-80.8
					C1712.4,1148.5,1684.6,1116.6,1640.7,1116.6z"/>
				<path d="M2003.3,1341.2c-6.1-7.8-9.9-25.6-12.3-55.2c-2.4-32.9-17-40.2-43.9-40.2h-53.3v95.4h-78.7v-287.6h150
					c76.9,0,115.1,35.1,115.1,91.3c0,42-26.9,69.4-63.2,73.9c30.7,5.9,48.6,22.8,51.9,56.1c4.2,42.9,5.7,55.7,15.6,66.2H2003.3z
					 M1951,1186c34,0,50.9-8.2,50.9-34.7c0-23.3-17-35.6-50.9-35.6h-57.1v70.3H1951z"/>
				<path d="M2286.7,1053.6h86.3l-114.1,178.5v109.1h-77.8v-109.1L2067,1053.6h89.1l67,103.6L2286.7,1053.6z"/>
			</g>
		</g>
	</g>
	<g>
		<defs>
			<rect id="SVGID_15_" x="496.4" y="-604.8" width="186.5" height="169.5"/>
		</defs>
		<clipPath id="SVGID_2_">
			<use xlink:href="#SVGID_15_"  style="overflow:visible;"/>
		</clipPath>
		<g class="st3">
			
				<image style="overflow:visible;" width="4032" height="3024" xlink:href="../../Images for the website/IMG_4886.JPG"  transform="matrix(0.3888 0 0 0.3562 -16.1078 -1030.2795)">
			</image>
		</g>
	</g>
</g>
<g id="Layer_2">
</g>
</svg>
