<?xml version="1.0" encoding="utf-8"?>
<!-- Generator: Adobe Illustrator 24.0.3, SVG Export Plug-In . SVG Version: 6.00 Build 0)  -->
<svg version="1.1" id="Layer_1" xmlns="http://www.w3.org/2000/svg" xmlns:xlink="http://www.w3.org/1999/xlink" x="0px" y="0px"
	 viewBox="0 0 1036 566" style="enable-background:new 0 0 1036 566;" xml:space="preserve">
<style type="text/css">
	.st0{fill:#FFFFFF;}
</style>
<g>
	<rect x="165.9" y="1" width="195.2" height="188.8"/>
	<rect x="296.9" y="190" width="446.5" height="188.8"/>
	<g>
		<g>
			<path d="M435.1,71.5h15.7c6.1,0,11.1,1.9,14.8,5.6c3.7,3.7,5.6,8.7,5.6,14.8c0,6.1-1.9,11.1-5.6,14.8c-3.7,3.7-8.7,5.6-14.8,5.6
				h-15.7V71.5z M450.8,77.4h-8.3v28.7h8.3c8,0,12.6-5.2,12.6-14.4C463.3,82.7,458.8,77.4,450.8,77.4z"/>
			<path d="M485.6,112.1H478V71.5h7.6V112.1z"/>
			<path d="M497.9,107c-3.5-3.9-5.3-8.9-5.3-15.3c0-6.2,1.8-11.3,5.5-15.2c3.6-3.9,8.3-5.8,14.2-5.8c9.3,0,15.3,4.8,17,13.4h-7.5
				c-1-4.8-4.3-7.4-9.5-7.4c-7.5,0-12,5.6-12,15c0,9.4,4.4,15.1,11.9,15.1c5.9,0,10.1-3.5,10.1-8.5v-1.4h-7.9v-5.5h15.4v20.7h-5.9
				l-0.5-5.8c-0.7,1.9-2.2,3.4-4.4,4.6c-2.2,1.3-4.7,1.9-7.3,1.9C506,112.8,501.4,110.9,497.9,107z"/>
			<path d="M545.9,112.1h-7.6V71.5h7.6V112.1z"/>
			<path d="M574.8,112.1h-7.5V77.4h-14.6v-6h36.7v6h-14.6V112.1z"/>
			<path d="M629.4,112.1h-7.7l-3.8-10h-18.3l-3.9,10h-7.4l16.3-40.7h8.5L629.4,112.1z M608.8,78.7h-0.2l-6.8,17.5h13.7L608.8,78.7z"
				/>
			<path d="M663.3,112.1h-28.5V71.5h7.6v34.7h21V112.1z"/>
		</g>
	</g>
	<g>
		<g>
			<path d="M852.2,301.1h-7.7l-3.8-10h-18.3l-3.9,10H811l16.3-40.7h8.5L852.2,301.1z M831.7,267.7h-0.2l-6.8,17.5h13.7L831.7,267.7z
				"/>
			<path d="M864.9,285.9v15.2h-7.4v-40.7H875c9.6,0,15.1,4.6,15.1,12.8c0,5.6-3.2,9.8-8.7,11.6l10.2,16.3h-8.3l-9.3-15.2H864.9z
				 M864.9,266.4V280h9.2c5.6,0,8.5-2.3,8.5-6.8c0-4.5-2.9-6.8-8.5-6.8H864.9z"/>
			<path d="M917.6,301.1H910v-34.7h-14.6v-6h36.7v6h-14.6V301.1z"/>
			<path d="M935.2,288.8h7.3c0.5,4.8,4.2,7.4,10.4,7.4c5.2,0,8.6-2.4,8.6-6.3c0-3-1.9-4.6-6.7-5.5l-7.5-1.4
				c-7.3-1.3-10.8-5-10.8-11.1c0-3.6,1.4-6.5,4.3-8.8c2.8-2.3,6.5-3.4,11-3.4c9.7,0,15.6,4.3,16.3,11.9h-7.1
				c-0.5-3.9-3.9-6.2-9.1-6.2c-4.8,0-8,2.5-8,6.2c0,3,1.5,4.3,6.5,5.3l7.9,1.5c7.2,1.4,10.7,5,10.7,11.1c0,3.6-1.5,6.6-4.4,8.8
				c-3,2.3-6.7,3.5-11.3,3.5C942.5,301.8,935.9,297.1,935.2,288.8z"/>
			<path d="M1029,279.5v5.4h-12.4v12.4h-5.4v-12.4h-12.4v-5.4h12.4v-12.4h5.4v12.4H1029z"/>
		</g>
	</g>
	<g>
		<g>
			<path d="M212.7,498h-7.6v-40.7h7.6v17.1h20.9v-17.1h7.5V498h-7.5v-17.7h-20.9V498z"/>
			<path d="M284.5,457.4v24.3c0,10.9-6.2,17.1-17.4,17.1c-11.1,0-17.4-6.2-17.4-17.2v-24.2h7.6v24.2c0,7.3,3.4,11.1,9.8,11.1
				c6.4,0,9.9-3.9,9.9-11.1v-24.2H284.5z"/>
			<path d="M328.9,466.1l-11.6,32h-5.5l-11.6-32h-0.1v32h-7v-40.7h10.7l10.9,30.6h0.1l10.9-30.6h10.4V498H329v-32H328.9z"/>
			<path d="M382.8,498H375l-3.8-10h-18.3l-3.9,10h-7.4l16.3-40.7h8.5L382.8,498z M362.2,464.7H362l-6.8,17.5h13.7L362.2,464.7z"/>
			<path d="M388.1,457.4h8.8l19.1,28.8h0.1v-28.8h7.2V498h-7l-20.9-31.5h-0.1V498h-7.2V457.4z"/>
			<path d="M440.1,498h-7.6v-40.7h7.6V498z"/>
			<path d="M469,498h-7.5v-34.7h-14.6v-6h36.7v6H469V498z"/>
			<path d="M498,498h-7.6v-40.7h7.6V498z"/>
			<path d="M536.7,492.1v6h-29.5v-40.7h29.2v6h-21.8v11.3H534v6h-19.3v11.4H536.7z"/>
			<path d="M542,485.7h7.3c0.5,4.8,4.2,7.4,10.4,7.4c5.2,0,8.6-2.4,8.6-6.3c0-3-1.9-4.6-6.7-5.5l-7.5-1.4c-7.3-1.3-10.8-5-10.8-11.1
				c0-3.6,1.4-6.5,4.3-8.8c2.8-2.3,6.5-3.4,11-3.4c9.7,0,15.6,4.3,16.3,11.9h-7.1c-0.5-3.9-3.9-6.2-9.1-6.2c-4.8,0-8,2.5-8,6.2
				c0,3,1.5,4.3,6.5,5.3l7.9,1.5c7.2,1.4,10.7,5,10.7,11.1c0,3.6-1.5,6.6-4.4,8.8c-3,2.3-6.7,3.5-11.3,3.5
				C549.3,498.7,542.7,494,542,485.7z"/>
		</g>
	</g>
	<g>
		<path class="st0" d="M215.1,35.9h42c17.3,0,31.2,5.5,41.8,16.3c10.6,11,15.9,25.2,15.9,43c0,17.8-5.3,32-15.9,42.8
			c-10.6,11-24.6,16.4-41.8,16.4h-42V35.9z M257.1,47.9h-27.9v94.6h27.9c27,0,43-17.9,43-47.3S283.8,47.9,257.1,47.9z"/>
	</g>
	<rect x="679.1" y="378.8" width="195.2" height="188.8"/>
	<g>
		<path class="st0" d="M742.6,532.2h-14.3V413.7h14.3V466H812v-52.3h14.3v118.5H812v-54.3h-69.4V532.2z"/>
	</g>
	<g>
		<path class="st0" d="M463.3,342.6h-14.9l-13.1-33h-56.8l-13.1,33h-14.3l48-118.5h16.1L463.3,342.6z M407.2,238.4h-0.5l-23.6,59.4
			h47.5L407.2,238.4z"/>
		<path class="st0" d="M497.3,294.7v48h-14.1V224.1h45.6c26.7,0,41.7,12.6,41.7,35.2c0,16.8-10.8,29.4-27.4,33.2l32.5,50.1h-16.1
			l-30.7-48H497.3z M497.3,236.1v46.6H528c18.1,0,28-8.1,28-23.4c0-14.8-10.1-23.2-28-23.2H497.3z"/>
		<path class="st0" d="M647.1,342.6h-14.3V236.1h-44.1v-11.9h102.7v11.9h-44.3V342.6z"/>
	</g>
</g>
</svg>
