<?xml version="1.0" encoding="utf-8"?>
<!-- Generator: Adobe Illustrator 26.0.1, SVG Export Plug-In . SVG Version: 6.00 Build 0)  -->
<svg version="1.1" id="Layer_1" xmlns="http://www.w3.org/2000/svg" xmlns:xlink="http://www.w3.org/1999/xlink" x="0px" y="0px"
	 viewBox="0 0 1304.3 352.5" style="enable-background:new 0 0 1304.3 352.5;" xml:space="preserve">
<style type="text/css">
	.st0{fill:#E6E5D5;}
	.st1{fill:none;stroke:#E6E5D5;stroke-width:3;stroke-miterlimit:10;}
</style>
<g>
	<path class="st0" d="M787.7,289.3c-11-7.6-19.6-17.3-25.9-29.1c-6.3-11.8-9.4-25.2-9.4-40.2c0-10.3,1.3-19.9,4-28.8
		c2.7-8.9,6.5-16.7,11.5-23.6c5-6.9,10.9-12.5,17.6-16.9v2.8c-7.3,6.9-12.8,16.2-16.5,27.8s-5.5,24.5-5.5,38.6
		c0,13.2,2.1,25.7,6.2,37.4c4.1,11.8,10.1,21.4,17.9,29v3H787.7z"/>
	<path class="st0" d="M849.2,157.4c0-2.1,0.4-3.8,1.3-5c0.9-1.2,2-1.7,3.5-1.7c1.6,0,2.8,0.6,3.6,1.7c0.8,1.2,1.2,2.8,1.2,5
		c0,2.1-0.1,4.5-0.4,7.1c-0.3,2.6-0.6,5.4-1.1,8.5c-0.7,3.9-1.3,7.6-1.7,11.1h-2.8c-0.2-2.1-0.6-4.2-0.9-6.3c-0.4-2.1-0.7-4-0.9-5.9
		c-0.5-2.7-0.9-5.3-1.2-7.7C849.4,161.7,849.2,159.5,849.2,157.4z"/>
	<path class="st0" d="M887.1,196.9h0.4c2.6-3.8,5.4-6.8,8.2-8.9c2.8-2.1,6-3.2,9.5-3.2c8.5,0,12.7,5.7,12.7,17.2v37.9
		c0,2.8,0.2,4.8,0.5,6.1s1,2.2,2.1,2.7s2.7,0.7,5,0.7v2.8h-8.8h-6.9H901v-2.8c2.3,0,4-0.2,5.1-0.7s1.8-1.4,2.1-2.7s0.5-3.3,0.5-6.1
		v-38.1c0-3.5-0.5-6.1-1.6-7.7c-1.1-1.6-2.8-2.4-5.1-2.4c-4.6,0-9.6,3.3-14.8,10v38.2c0,2.8,0.2,4.8,0.6,6.1
		c0.4,1.3,1.1,2.2,2.1,2.7s2.7,0.7,5,0.7v2.8H886h-6.8h-9.8v-2.8c2.6,0,4.4-0.2,5.6-0.7c1.2-0.5,1.9-1.4,2.4-2.7
		c0.4-1.3,0.6-3.3,0.6-6.1v-39V200c0-2.7-0.1-4.6-0.4-5.5c-0.2-0.9-0.8-1.4-1.7-1.5c-0.9,0-2.5,0.4-4.8,1.4l-1.1-2.5l9.2-4l6.6-3.2
		l1.5,1.5v10.7H887.1z M917.9,196.9c2.7-3.7,5.6-6.7,8.5-8.8c3-2.2,6.2-3.3,9.8-3.3c4.3,0,7.4,1.5,9.3,4.4c1.9,2.9,2.9,7.2,2.9,12.8
		v37.9c0,2.8,0.2,4.8,0.6,6.1c0.4,1.3,1.2,2.2,2.4,2.7s3,0.7,5.4,0.7v2.8h-9.7h-6.8h-8.8v-2.8c2.3,0,4-0.2,5-0.7s1.7-1.4,2.1-2.7
		c0.4-1.3,0.6-3.3,0.6-6.1v-38.1c0-3.5-0.5-6.1-1.6-7.7c-1.1-1.6-2.8-2.4-5.2-2.4c-4.6,0-9.5,3.3-14.7,10l-0.2-4.7h0.4V196.9z"/>
	<path class="st0" d="M993.5,211.4c0-4.3-0.4-8-1.1-11.3c-0.7-3.2-1.8-5.8-3.4-7.7c-1.6-1.9-3.6-2.9-6.1-2.9c-2.9,0-5.3,1.2-7.1,3.7
		c-1.9,2.5-3.2,5.8-4.1,10c-0.9,4.2-1.3,9-1.3,14.4c0,5.6,0.6,10.6,1.7,15c1.2,4.4,2.8,7.9,5,10.5s4.8,3.8,8,3.8
		c3.4,0,6.4-1.6,9-4.9c2.6-3.3,4.7-8.6,6.2-15.9h2.8c-1.2,9.3-3.6,16.4-7.3,21.3c-3.7,4.9-8.3,7.3-13.7,7.3c-4.5,0-8.3-1.4-11.4-4.3
		c-3.2-2.8-5.6-6.9-7.4-12.1s-2.6-11.3-2.6-18.3c0-6.4,0.9-12.3,2.7-17.7s4.4-9.6,7.8-12.8c3.4-3.2,7.4-4.8,12-4.8
		c4.2,0,7.8,1.3,10.8,4c3,2.6,5.2,6.3,6.7,11s2.2,10.1,2.2,16.2h-34.4v-4.6h25V211.4z"/>
	<path class="st0" d="M1026.2,196.9h0.4c2.6-3.7,5.3-6.7,8.3-8.8c3-2.2,6.2-3.3,9.8-3.3c8.4,0,12.6,5.7,12.6,17.2v37.9
		c0,2.8,0.2,4.8,0.6,6.1s1.2,2.2,2.4,2.7c1.2,0.5,3,0.7,5.4,0.7v2.8h-9.7h-6.8h-9v-2.8c2.3,0,4-0.2,5.1-0.7s1.9-1.4,2.2-2.7
		c0.4-1.3,0.6-3.3,0.6-6.1V202c0-3.5-0.6-6.1-1.7-7.9c-1.2-1.8-3-2.7-5.4-2.7s-4.8,0.9-7.2,2.7c-2.4,1.8-4.9,4.3-7.5,7.5v38.2
		c0,2.8,0.2,4.8,0.6,6.1s1.1,2.2,2.2,2.7s2.8,0.7,5.2,0.7v2.8h-9h-6.8h-9.8v-2.8c2.6,0,4.4-0.2,5.6-0.7c1.2-0.5,1.9-1.4,2.4-2.7
		c0.4-1.3,0.6-3.3,0.6-6.1v-39V200c0-2.7-0.1-4.6-0.4-5.5c-0.2-0.9-0.8-1.4-1.7-1.5c-0.9,0-2.5,0.4-4.8,1.4l-1.1-2.5l9.2-4l6.6-3.2
		l1.5,1.5v10.7H1026.2z"/>
	<path class="st0" d="M1107.2,242.6c-2.6,4.1-5.2,7.2-7.8,9.2c-2.6,2-5.6,3-9.2,3c-4.3,0-8-1.3-11.1-4s-5.5-6.5-7.1-11.3
		c-1.7-4.9-2.5-10.6-2.5-17.1c0-7,0.9-13.4,2.7-19.1c1.8-5.7,4.5-10.2,8-13.5s7.8-4.9,12.8-4.9c3,0,5.7,0.8,8.1,2.3s4.5,3.4,6.2,5.6
		h0.2v49.9h-0.3V242.6z M1107.7,212.2c0-7.2-1.2-12.8-3.5-16.8c-2.4-4-5.5-6-9.3-6c-5.2,0-8.9,2.8-11.2,8.4
		c-2.3,5.6-3.4,12.7-3.4,21.2c0,8.8,1.1,15.9,3.3,21.2c2.2,5.3,5.5,7.9,10.1,7.9c2.1,0,4-0.5,5.6-1.4s3-2.1,4.2-3.6
		c1.2-1.4,2.5-3.3,4-5.6c0-0.2,0.1-0.3,0.2-0.5L1107.7,212.2L1107.7,212.2z M1107.7,166.8V166c0-2.7-0.1-4.6-0.4-5.5
		c-0.2-0.9-0.8-1.4-1.7-1.5c-0.9,0-2.4,0.4-4.6,1.3l-1.1-2.5l8.9-3.8l6.6-3.2l1.5,1.6v86.2v0.9c0,2.7,0.1,4.6,0.3,5.5
		c0.2,0.9,0.7,1.4,1.6,1.5c0.9,0,2.5-0.4,4.8-1.3l1.1,2.5l-8.9,3.8l-6.6,3.2l-1.5-1.6L1107.7,166.8L1107.7,166.8z"/>
	<path class="st0" d="M1130.8,286.5c7.8-7.6,13.8-17.3,17.9-29c4.1-11.8,6.2-24.2,6.2-37.4c0-14.1-1.8-27-5.5-38.6
		s-9.2-20.9-16.5-27.8v-2.8c6.8,4.4,12.6,10,17.6,16.9s8.8,14.8,11.5,23.6c2.7,8.9,4,18.5,4,28.8c0,15-3.1,28.4-9.4,40.2
		c-6.3,11.8-14.9,21.5-25.9,29.1v-3H1130.8z"/>
</g>
<g>
	<path class="st0" d="M65.7,235.9h-0.6c-0.1,0.1-0.2,0.2-0.2,0.3s-0.1,0.1-0.2,0.1c-3.8,5.6-8.1,10.4-13.1,14.2s-11.6,5.7-19.7,5.7
		c-7.5,0-13.7-2.3-18.5-7C8.5,244.7,6,238.2,6,230c0-7.5,1.9-13.7,5.7-18.6c3.8-4.9,8.5-8.9,14-11.9s13-6.5,22.4-10.4l7.3-3l9.7-4
		v9.1l-8.3,3.6c-7.1,3.1-12.5,6.9-16.1,11.3c-3.6,4.4-5.4,9.3-5.4,14.7c0,5,1.2,8.8,3.7,11.4c2.5,2.6,5.5,3.9,9.2,3.9
		c3.1,0,6.1-0.8,9-2.4c2.9-1.6,5.7-4.2,8.6-7.7L65.7,235.9L65.7,235.9z M95.7,237.1c0,3,0.3,5.1,1,6.4c0.7,1.3,1.9,2,3.8,2
		s3.3-0.6,4.3-1.8s2-3.2,3.1-6h5.6l-0.4,1c-1.9,5.9-4.5,10.3-8,13.2c-3.4,2.9-8.7,4.3-15.8,4.3c-7.8,0-13.8-1.9-18-5.8
		c-4.2-3.9-6.3-9.9-6.3-17.9v-59c0-6-0.3-10.8-1-14.2c-0.7-3.4-1.9-5.9-3.8-7.6c-1.9-1.6-4.6-2.4-8.1-2.4c-3.2,0-5.8,0.7-7.9,2
		c-2,1.3-3,3.4-3,6c0,1.9,0.5,3.8,1.4,5.6c0.8,2.7,1.2,5,1.2,6.9c0,3.5-1.5,6.3-4.4,8.5c-3,2.1-6.9,3.2-11.7,3.2
		c-5,0-8.8-1.4-11.6-4.2s-4.1-6.7-4.1-11.7c0-7.8,3.9-13.9,11.8-18.4s18-6.8,30.3-6.8c13,0,23.2,2.9,30.5,8.7s11,14,11,24.6v63.4
		H95.7z"/>
	<path class="st0" d="M137.8,186.7c-4.3,0-8-1.5-11.1-4.6s-4.6-6.8-4.6-11.1s1.5-8,4.6-11s6.8-4.5,11.1-4.5s8,1.5,11,4.5
		s4.5,6.7,4.5,11s-1.5,8-4.5,11.1S142.1,186.7,137.8,186.7z"/>
	<path class="st0" d="M214.2,164.2h0.6c5.2-7.3,10.7-13,16.4-17.3s12.5-6.4,20.2-6.4c16.3,0,24.4,10.7,24.4,32V229
		c0,4.8,0.3,8.5,0.9,11s1.7,4.2,3.4,5.1c1.7,0.9,4.2,1.4,7.6,1.4v5.6h-13.5h-27.4h-13.5v-5.6c3.4,0,5.9-0.5,7.6-1.4
		c1.7-0.9,2.8-2.7,3.4-5.1c0.6-2.5,0.9-6.1,0.9-11v-58c0-4.6-0.6-8-1.7-10.2c-1.1-2.2-3.2-3.3-6.1-3.3c-6.7,0-14.4,5.8-23.2,17.3
		V229c0,4.8,0.3,8.5,1,11s1.8,4.2,3.4,5.1c1.6,0.9,4.1,1.4,7.5,1.4v5.6h-13.5h-26.8h-17.9v-5.6c4.4,0,7.8-0.5,10-1.4
		s3.8-2.7,4.6-5.1c0.9-2.5,1.3-6.1,1.3-11v-51.4v-1.4c0-4.7-0.3-8-0.8-9.8s-1.6-2.7-3.3-2.6c-1.7,0.1-4.6,1.1-8.8,3.1l-2.4-4.8
		l17.1-8.7l25.2-13.1l3.4,3.4L214.2,164.2L214.2,164.2z M275.8,164.2c5.2-7,11-12.7,17.4-17.1c6.4-4.4,13.5-6.6,21.3-6.6
		c7.7,0,13.4,2.6,17.1,7.7c3.8,5.1,5.6,13.2,5.6,24.4V229c0,4.8,0.4,8.5,1.2,11c0.8,2.5,2.3,4.2,4.5,5.1c2.2,0.9,5.5,1.4,10,1.4v5.6
		h-17.7h-27h-13.5v-5.6c3.4,0,5.9-0.5,7.6-1.4s2.8-2.7,3.4-5.1c0.6-2.5,0.9-6.1,0.9-11v-58c0-4.6-0.6-8-1.7-10.2s-3.2-3.3-6.1-3.3
		c-6.7,0-14.4,5.8-23.2,17.3l-0.4-10.7L275.8,164.2L275.8,164.2z"/>
	<path class="st0" d="M411.6,183.1c0-8.1-0.3-14.2-0.9-18.5s-1.7-7.6-3.3-10c-1.6-2.3-4-3.5-7.3-3.5c-3.6,0-6.3,1.3-8.2,4
		c-1.8,2.7-3.1,6.6-3.7,11.8c-0.7,5.2-1,12.6-1,22.3c0,9.9,0.9,18.3,2.7,25c1.8,6.7,4.6,11.8,8.3,15.2c3.7,3.4,8.4,5.1,14.2,5.1
		c5.1,0,9.6-1.8,13.5-5.3c3.9-3.6,7.5-9.7,10.7-18.4h5.4c-3,15.2-7.9,26.6-14.9,34.2c-7,7.6-16.2,11.4-27.6,11.4
		c-8.6,0-16.1-2.2-22.6-6.6s-11.5-10.9-15.1-19.3c-3.6-8.5-5.4-18.6-5.4-30.4c0-10.6,1.8-20.4,5.4-29.4s8.8-16.3,15.5-21.8
		s14.7-8.3,24-8.3c9.4,0,17.2,2.4,23.4,7.2c6.2,4.8,10.6,11.2,13.4,19.1c2.8,8,4.1,17,4.1,27.1h-62.1v-10.7h31.5V183.1z"/>
	<path class="st0" d="M494.1,164.2h0.6c5-7,10.6-12.7,16.9-17.1c6.3-4.4,13.4-6.6,21.2-6.6c16.3,0,24.4,10.7,24.4,32V229
		c0,4.8,0.4,8.5,1.3,11c0.9,2.5,2.4,4.2,4.5,5.1c2.1,0.9,5.4,1.4,9.9,1.4v5.6h-17.7h-26.8h-14.9v-5.6c3.8,0,6.5-0.5,8.4-1.4
		c1.8-0.9,3.1-2.7,3.8-5.1c0.7-2.5,1.1-6.1,1.1-11v-56.6c0-4.4-0.7-7.8-2.2-10.2c-1.5-2.3-4-3.5-7.5-3.5s-7.2,1.4-11.1,4.1
		c-3.9,2.8-7.9,6.8-11.9,12V229c0,4.8,0.3,8.5,1,11s1.9,4.2,3.8,5.1c1.9,0.9,4.6,1.4,8.3,1.4v5.6h-14.7h-26.8h-17.9v-5.6
		c4.4,0,7.8-0.5,10-1.4s3.8-2.7,4.6-5.1c0.9-2.5,1.3-6.1,1.3-11v-51.4v-1.4c0-4.7-0.3-8-0.8-9.8s-1.6-2.7-3.3-2.6
		c-1.7,0.1-4.6,1.1-8.8,3.1l-2.4-4.8l17.1-8.7l25.2-13.1l3.4,3.4V164.2z"/>
	<path class="st0" d="M649.6,234.5c-4.3,7.1-9.1,12.5-14.3,16.2s-11.7,5.5-19.3,5.5s-14.5-2.1-20.5-6.2c-6-4.2-10.7-10.3-14.1-18.3
		c-3.4-8.1-5.1-17.8-5.1-29.2c0-12.8,2.1-23.8,6.2-33.2c4.2-9.4,9.8-16.6,16.8-21.5c7.1-4.9,14.9-7.4,23.5-7.4
		c6,0,11.3,1.2,15.9,3.5c4.6,2.4,8.3,5.1,11.3,8.4h0.4v82.2L649.6,234.5L649.6,234.5z M650.4,187.1c0-12.1-1.8-21.1-5.5-27.1
		s-8.3-9-13.8-9c-7,0-12,3.8-14.9,11.3c-3,7.5-4.4,18.1-4.4,31.8s1.4,24.9,4.2,33.4c2.8,8.6,7.5,12.9,13.9,12.9
		c2.7,0,5.2-0.7,7.5-2.1c2.3-1.4,4.4-3.3,6.4-5.6s4.1-5.2,6.2-8.6c0-0.3,0.1-0.5,0.4-0.8L650.4,187.1L650.4,187.1z M650.4,124.3
		v-1.4c0-4.8-0.2-8.1-0.6-9.9c-0.4-1.7-1.4-2.7-2.9-2.7c-1.5-0.1-4.3,0.8-8.2,2.7l-2.4-4.8l15.9-8.1L677.4,87l3.4,3.6V219v1.4
		c0,4.8,0.2,8.1,0.6,9.9c0.4,1.7,1.4,2.7,2.9,2.7c1.5,0.1,4.2-0.8,8-2.7l2.6,4.8l-15.9,8.1l-25.2,13.1l-3.4-3.6L650.4,124.3
		L650.4,124.3z"/>
</g>
<g>
	<path class="st0" d="M805.9,228.2c0,4.3,0.4,8,1.1,11.3c0.7,3.2,1.8,5.8,3.4,7.7c1.6,1.9,3.6,2.9,6.1,2.9c2.9,0,5.3-1.2,7.1-3.7
		c1.9-2.5,3.2-5.8,4.1-10c0.9-4.2,1.3-9,1.3-14.4c0-5.6-0.6-10.6-1.7-15c-1.2-4.4-2.8-7.9-5-10.5s-4.8-3.8-8-3.8
		c-3.4,0-6.4,1.6-9,4.9c-2.6,3.3-4.7,8.6-6.2,15.9h-2.8c1.2-9.3,3.6-16.4,7.3-21.3c3.7-4.9,8.3-7.3,13.7-7.3c4.5,0,8.3,1.4,11.4,4.3
		c3.2,2.8,5.6,6.9,7.4,12.1s2.6,11.3,2.6,18.3c0,6.4-0.9,12.3-2.7,17.7s-4.4,9.6-7.8,12.8c-3.4,3.2-7.4,4.8-12,4.8
		c-4.2,0-7.8-1.3-10.8-4c-3-2.6-5.2-6.3-6.7-11s-2.2-10.1-2.2-16.2h34.4v4.6h-25V228.2z"/>
</g>
<circle class="st1" cx="1226.4" cy="174.6" r="19.1"/>
<circle class="st1" cx="1226.4" cy="237.4" r="19.1"/>
</svg>
