<?xml version="1.0" encoding="utf-8"?>
<!-- Generator: Adobe Illustrator 25.4.1, SVG Export Plug-In . SVG Version: 6.00 Build 0)  -->
<svg version="1.1" id="Layer_1" xmlns="http://www.w3.org/2000/svg" xmlns:xlink="http://www.w3.org/1999/xlink" x="0px" y="0px"
	 viewBox="0 0 1177.5 352.5" style="enable-background:new 0 0 1177.5 352.5;" xml:space="preserve">
<style type="text/css">
	.st0{fill:#010101;}
</style>
<path class="st0" d="M105.8,75.1L48.3,261.3c-2.1,6.9-3.1,11.8-2.9,14.8c0.2,3,2.2,5.2,6.1,6.5c3.8,1.3,10.9,1.9,21.1,1.9v7.4h-37
	h-5.7H4.9v-7.4c6.6,0,11.8-0.6,15.5-1.8c3.7-1.2,6.8-3.4,9.1-6.6c2.3-3.2,4.6-8.2,6.7-14.8L109,26.3h12.8l74.7,234.9
	c2.1,6.7,4.4,11.6,6.9,14.8c2.4,3.2,5.5,5.4,9.1,6.6c3.6,1.2,8.8,1.8,15.6,1.8v7.4h-24.9h-24.9h-37v-7.4c10.2,0,17.2-0.6,21.1-1.9
	c3.8-1.3,5.8-3.4,5.9-6.3c0.1-2.9-0.9-7.9-3-15L106.8,75.1H105.8z M156.9,198.4v12.3h-98v-12.3H156.9z"/>
<path class="st0" d="M377.9,247.4l70.6-213.6h31.9h37v7.4c-10.4,0-17.9,0.7-22.5,2.1c-4.6,1.4-7.6,3.7-9.1,6.9
	c-1.5,3.2-2.2,8.5-2.2,15.8v193.6c0,7.3,0.7,12.6,2.2,15.8c1.5,3.2,4.5,5.5,9.1,6.9c4.6,1.4,12.1,2.1,22.5,2.1v7.4h-37H459h-36.7
	v-7.4c10.2,0,17.6-0.7,22.2-2.1c4.6-1.4,7.6-3.7,9.1-6.9c1.5-3.2,2.2-8.5,2.2-15.8V52.5h-1l-80.1,246.9h-12.8L283.4,55.7h-1l0.6,204
	c0,7.3,0.7,12.6,2.2,15.8c1.5,3.2,4.5,5.5,9.1,6.9c4.6,1.4,12.1,2.1,22.5,2.1v7.4h-37h-5.4h-37v-7.4c10.2,0,17.6-0.7,22.2-2.1
	c4.6-1.4,7.7-3.7,9.3-6.9c1.6-3.2,2.4-8.5,2.4-15.8V66c0-7.3-0.8-12.6-2.4-15.8c-1.6-3.2-4.7-5.5-9.3-6.9c-4.6-1.4-12-2.1-22.2-2.1
	v-7.4h37h32.9l69.6,213.6H377.9z"/>
<path class="st0" d="M703.7,41.5l5.4,51l-7.3,0.6c-1.5-14.2-3.2-24.5-5.3-31c-2-6.5-4.8-10.8-8.5-12.9c-3.6-2.1-8.9-3.2-16-3.2
	h-71.2v104.2h45.3c7,0,12.2-0.8,15.5-2.4c3.3-1.6,5.6-5,7-10.2c1.4-5.2,2.1-13.4,2.1-24.8h7v41v5.2v41h-7c0-11.4-0.7-19.7-2.1-24.8
	c-1.4-5.2-3.7-8.6-7-10.2c-3.3-1.6-8.5-2.4-15.5-2.4h-45.3v98.8c0,7.5,1,12.5,2.9,14.8c1.9,2.4,6,3.5,12.1,3.5h60
	c6.8,0,12.3-1.3,16.4-4c4.2-2.7,8-8,11.7-15.8c3.6-7.9,7.8-20.2,12.5-37l7,1.9l-17.6,60.3l-1.6,6.8h-128h-37v-7.4
	c10.2,0,17.6-0.7,22.2-2.1c4.6-1.4,7.7-3.7,9.3-6.9c1.6-3.2,2.4-8.5,2.4-15.8V66c0-7.3-0.8-12.6-2.4-15.8c-1.6-3.2-4.7-5.5-9.3-6.9
	c-4.6-1.4-12-2.1-22.2-2.1v-7.4h37h126.5L703.7,41.5z"/>
<path class="st0" d="M908,66c0-7.3-0.8-12.6-2.4-15.8c-1.6-3.2-4.7-5.5-9.3-6.9c-4.6-1.4-12-2.1-22.2-2.1v-7.4h37h5.4h37v7.4
	c-10.4,0-17.9,0.7-22.5,2.1c-4.6,1.4-7.6,3.7-9.1,6.9c-1.5,3.2-2.2,8.5-2.2,15.8v233.3H907L762.3,61.2c-5.1-8.4-10.3-13.8-15.5-16.3
	c-5.2-2.5-12.8-3.7-22.8-3.7v-7.4h24.9h31.3L907,241.9h1V66z M769.7,51.2v208.5c0,7.3,0.7,12.6,2.2,15.8c1.5,3.2,4.5,5.5,9.1,6.9
	c4.6,1.4,12.1,2.1,22.5,2.1v7.4h-37h-5.4h-37v-7.4c10.2,0,17.6-0.7,22.2-2.1c4.6-1.4,7.7-3.7,9.3-6.9c1.6-3.2,2.4-8.5,2.4-15.8V51.2
	H769.7z"/>
<path class="st0" d="M990.7,291.9h-37v-7.4c10.2,0,17.6-0.7,22.2-2.1c4.6-1.4,7.7-3.7,9.3-6.9c1.6-3.2,2.4-8.5,2.4-15.8V66
	c0-7.3-0.8-12.6-2.4-15.8c-1.6-3.2-4.7-5.5-9.3-6.9c-4.6-1.4-12-2.1-22.2-2.1v-7.4h37h58.1c23.8,0,45,4.9,63.5,14.7
	c18.5,9.8,33.2,24.4,43.9,43.9c10.7,19.5,16.1,43,16.1,70.5c0,27.5-5.5,51-16.4,70.5c-11,19.5-25.8,34.1-44.4,43.9
	c-18.6,9.8-39.5,14.7-62.7,14.7H990.7z M1048.8,279.7c19.2,0,35.8-4.7,49.8-14.2c14.1-9.5,24.8-22.9,32.3-40.3
	c7.4-17.4,11.2-38.2,11.2-62.3c0-24.1-3.7-44.9-11.2-62.3c-7.5-17.4-18.2-30.9-32.3-40.3c-14-9.5-30.7-14.2-49.8-14.2
	c-7,0-13.3,0.4-18.8,1.3c-5.5,0.9-10.4,2.4-14.7,4.5v222c4.3,2.2,9.2,3.7,14.7,4.5C1035.5,279.3,1041.7,279.7,1048.8,279.7z"/>
<g>
	<g>
		<path class="st0" d="M59.8,291.9c7.3,0,15.4,1.2,22.3-1.7c3.7-1.5,7.3-3.3,10.8-5.1c8.5-4.5,16.7-9.8,24.6-15.2
			c21.3-14.5,41.6-30.7,61.5-47.1c23.4-19.3,46.3-39.1,69.1-59.1c22.8-20.1,45.4-40.3,68.1-60.5c19.3-17.2,38.6-34.3,58.3-50.9
			C386.9,41.8,399,31.1,412.9,23c1-0.6,2-1.1,3-1.6c0.4-0.2,0.9-0.4,1.3-0.6c0.8-0.4-0.7,0.3-0.1,0.1c0.2-0.1,0.4-0.2,0.7-0.2
			c0.6-0.2,2.6-1.1,1.2-0.4c0.2-0.1,0.6,0.1,0.8,0c0.3-0.2-1-0.3-0.2,0c-0.8-0.3-0.1,0-0.7-0.4c0.8,0.5,0-0.5,0.2,0.2
			c0.1,0.5-0.1-0.8,0.1,0.4c0,0.2,0.2,0.9,0.1,0.3c-0.1-0.7,0,0.4,0,0.6c0,0.6,0,1.1-0.1,1.7c-0.1,1.2,0.1-0.1-0.2,1.3
			c-0.3,1.6-0.7,3.1-1.1,4.7c-2.6,9-6.8,17.7-11,26.1C401,66.7,394.5,78.3,388,89.8c-14.5,25.4-29.9,50.2-45.4,74.9
			c-11.2,17.9-22.8,35.5-33.3,53.9c-5.9,10.3-11.6,20.8-16.5,31.7c-1.3,2.9,1.8,7.7,5.1,5.1c17.6-13.5,35.9-26.1,54.2-38.6
			c24.8-17,49.9-33.5,75.3-49.6c24.1-15.3,48.5-30.2,73.6-43.9c9.3-5.1,18.7-10,28.4-14.3c3.4-1.5,6.8-2.9,10.5-4.2
			c1.5-0.5,3-1,4.5-1.3c0.7-0.2,1.3-0.3,2-0.5c0.4-0.1,2.2-0.3,1-0.2c1-0.1,1.9-0.1,2.9-0.1c-0.6,0-0.4-0.3,0.3,0.1
			c0.3,0.1,0.3,0.1,0,0c0.6,0.2,1.2,0.6,1.7,1c3.2,2.5,3,7.8,2.5,11.6c-1.9,14.5-9.6,28.5-16.1,41.4c-12,23.8-23.4,47.8-32.4,72.9
			c-5.5,15.2-10.2,30.8-12.6,46.8c-2,13.4-2.9,28.1,2.3,41c14.2,35.2,58.9,22.5,86.4,14.6c26.6-7.7,52.5-18.8,77.9-29.8
			c31-13.5,62-27.8,90.6-46c5.5-3.5,10.8-7.2,15.9-11.1c3.8-3-1.5-8.2-5.3-5.3c-11.2,8.7-23.7,15.9-36.2,22.7
			c-15.2,8.3-30.8,16-46.5,23.2c-28.3,13.1-57.1,25.3-86.6,35.3c-13.1,4.4-26.5,8.4-40.1,10.9c-15.3,2.8-35.3,3.4-45.6-10.7
			c-7.5-10.3-7.5-24.5-6.4-36.6c1.5-15.9,6-31.5,11.1-46.5c8.5-25.2,19.5-49.5,31.6-73.2c7-13.6,14.4-27.6,18.1-42.5
			c2.3-9.3,3.2-23.7-8.5-27.1c-5-1.5-11,0.7-15.6,2.3c-8.6,3-16.9,7.1-25.1,11.2c-23.7,12-46.6,25.8-69.3,39.8
			c-26,16.1-51.6,32.7-77,49.7c-20.8,13.9-41.4,28.1-61.5,42.9c-3.3,2.4-6.6,4.9-9.8,7.4c1.7,1.7,3.4,3.4,5.1,5.1
			c11-24.8,25.9-47.7,40.4-70.6c15.3-24.3,30.6-48.6,45.2-73.4c13.2-22.3,26.7-45,36.6-69c2.6-6.2,5.8-13.7,5.4-20.6
			c-0.4-5.2-4-8.9-9.4-7.7c-4.4,0.9-8.6,3.8-12.3,6.2c-6.6,4.3-12.8,9.2-19,14.1c-18.1,14.4-35.5,29.7-52.9,45
			c-22.3,19.7-44.5,39.6-66.8,59.4c-23.4,20.7-46.8,41.4-70.6,61.6c-21.3,18.1-42.8,35.9-65.3,52.4c-15.8,11.6-32.2,23.6-50.3,31.4
			c-0.2,0.1-0.9,0.4-1.7,0.7c-1.3,0.5-2.6,0.6-4,0.7c-4.8,0.3-9.7,0-14.5,0C55,284.4,55,291.9,59.8,291.9L59.8,291.9z"/>
	</g>
</g>
</svg>
