<?xml version="1.0" encoding="utf-8"?>
<!-- Generator: Adobe Illustrator 24.0.3, SVG Export Plug-In . SVG Version: 6.00 Build 0)  -->
<svg version="1.1" id="Layer_1" xmlns="http://www.w3.org/2000/svg" xmlns:xlink="http://www.w3.org/1999/xlink" x="0px" y="0px"
	 viewBox="0 0 100 57.9" style="enable-background:new 0 0 100 57.9;" xml:space="preserve">
<g>
	<path d="M17.4,0C11.6,0,5.8,0,0,0c0,19.3,0,38.6,0,57.9c5.8,0,68.1,0,73.9,0V52c-3.9,0-64.1,0-68,0c0-15.4,0-30.7,0-46.1
		c3.9,0,7.7,0,11.5,0v5.9h5.9V5.9h-5.8C17.4,3.9,17.4,1.9,17.4,0z"/>
	<path d="M82.6,0c0,1.9,0,3.9,0,5.9c3.9,0,7.7,0,11.5,0c0,15.4,0,30.7,0,46.1c-3.9,0-7.8,0-11.6,0v5.9c5.8,0,11.7,0,17.5,0
		c0-19.3,0-38.6,0-57.9C94.2,0,88.5,0,82.6,0z"/>
	<polygon points="82.6,5.9 76.7,5.9 76.7,11.7 70.9,11.7 65,11.7 65,17.6 70.9,17.6 76.7,17.6 76.7,11.7 82.6,11.7 	"/>
	<rect x="23.3" y="11.7" width="5.9" height="5.9"/>
	<polygon points="35,23.5 40.9,23.5 40.9,17.6 35,17.6 29.1,17.6 29.1,23.5 	"/>
	<rect x="40.9" y="23.5" width="5.9" height="5.9"/>
	<rect x="47" y="29.3" width="5.9" height="5.9"/>
	<rect x="59.2" y="17.6" width="5.9" height="5.9"/>
	<rect x="53.3" y="23.5" width="5.9" height="5.9"/>
	<rect x="23.3" width="53.4" height="5.9"/>
</g>
</svg>
